<svg xmlns="http://www.w3.org/2000/svg" enable-background="new 0 0 2624 2399.8" viewBox="0 0 2624 2399.8"><rect width="2624" height="2399.8" fill="#7D23B6" fill-rule="evenodd" clip-rule="evenodd"/><linearGradient id="a" x1="598.567" x2="112.963" y1="1102.191" y2="388.3" gradientTransform="matrix(-1 0 0 1 1485.685 0)" gradientUnits="userSpaceOnUse"><stop offset="0" stop-color="#0fdeff"/><stop offset="1" stop-color="#fef080"/></linearGradient><path fill="url(#a)" fill-rule="evenodd" d="M430.3,311.6c200-101.3,678.9-92.4,1002.7,304.1
		c270.9,331.6,594.5,146.5,606.3,327.8c18.4,284.3-823.6,96.5-1286.3-20.5C401.6,834-30.3,544.9,430.3,311.6z" clip-rule="evenodd"/><linearGradient id="b" x1="2324.272" x2="4063.593" y1="648.349" y2="-660.507" gradientTransform="rotate(59.94 893.714 -1007.7)" gradientUnits="userSpaceOnUse"><stop offset="0" stop-color="#ed3fc1"/><stop offset="1" stop-color="#0fdeff"/></linearGradient><path fill="url(#b)" fill-rule="evenodd" d="M795.8,805.3C398.1,724.4-60,698.6,99.7,1356.6
		c133.7,551.1,685.2,1050.7,1447.6,856.9c762.5-193.8,1102.9-1140.2,605.4-1142.7C1465.2,1067.2,1222.1,891.9,795.8,805.3z" clip-rule="evenodd"/><path fill="#FEF080" fill-rule="evenodd" d="M1377.9 1299.4c-11 1.5-21.9 3.6-29 9.5-1.9 1.5-4.7 1.4-6.4-.4-1.7-1.8-1.5-4.4.4-6 10.1-8.4 24.4-10.3 38.1-12.1 2-.3 4.1-.5 6-.8 1.6-.8 3.3-1.5 5.1-1.9l16.3-3.8c4.7-1.1 9.5-.5 13.6 1.5l21.2-4.9c1.9 8.2 3.8 16.3 5.7 24.5l-15.7 3.6c-1.9 8.4-13.3 24.7-18.1 28.6-6.5 5.2-14.5 7.3-25.9 4.6-2.3-.6-3.8-2.9-3.2-5.3.6-2.3 2.9-3.8 5.3-3.2 8.3 2 14 .6 18.4-2.9 1.8-1.5 3.5-3.3 5.1-5.4-5.9 1.4-14.6 4.2-20.4 3.5-2.7.5-5.2 1-7.6 1.6-6.6 1.7-11.8 3.9-15.2 6.5-2.6 2-4 4.2-3.8 6.3.3 2.7.4 5.2-3 6.1-2.3.6-4.7-.8-5.3-3.1-.2-.7-.3-1.4-.4-2.1-.5-5.4 2.1-10.1 7.2-14 3.8-2.9 9.2-5.4 15.8-7.3-.3-.3-.6-.7-.9-1-12.9 3.1-25.4 8.1-35 21.5-1.4 2-4.1 2.4-6.1 1-2-1.4-2.4-4.1-1-6.1 10.8-15.1 24.1-20.9 37.9-24.4-.2-.7-.3-1.3-.4-2-12.4 2.8-24.9 7.3-33.3 17.7-1.5 1.9-4.3 2.1-6.1.6-1.9-1.5-2.1-4.3-.6-6.1 10.8-13.3 26.1-18.2 40.6-21.3C1377.2 1301.2 1377.5 1300.3 1377.9 1299.4zM2120.2 1202.9c21.7 36.5 32.7 79.1 30.8 122.7-6.1.2-12.1.3-18.2.5-1.5 23.7-6.3 47.8-14.5 71.7-13 37.7-33.3 70.5-58.4 97.1l-1.3 1-77.1-86.7c22.7-24 41.4-54.3 53.5-89.3 13.5-39 16.9-78.5 11.7-114.4 5.8-2.1 13.5-3 24.4-2.9C2092.3 1202.7 2099.1 1202.8 2120.2 1202.9z" clip-rule="evenodd"/><circle cx="2118.4" cy="1262.9" r="8.6" fill="#250C5E" fill-rule="evenodd" clip-rule="evenodd"/><path fill="#250C5E" fill-rule="evenodd" d="M2148,1206.7c-14.7,25.7-58.8,18.8-81.1,6
		c13.9,13,10.3,26.2,3.5,46.4l-9.5-1.9l0.4-16.2c-3.6,0.3-7.8-0.2-12.2-1.5c0.1-11.6-0.8-22.4-2.3-33.9
		C2071.4,1196.6,2122.3,1200,2148,1206.7z" clip-rule="evenodd"/><ellipse cx="2055.5" cy="1249.9" fill="#FEF080" fill-rule="evenodd" clip-rule="evenodd" rx="13.2" ry="9" transform="scale(-1) rotate(77.702 1551.598 -2551.771)"/><path fill="#250C5E" fill-rule="evenodd" d="M2117.1,1346.9c1.5-1,3.5-0.7,4.5,0.8c1,1.5,0.7,3.5-0.8,4.5
		c-0.9,0.6-1.9,1.1-3,1.5c-4.1,1.4-9.5,0.9-14.8-1.4c-5.1-2.2-10.2-6.1-14-11.5c-1.8-2.6-3.3-5.5-4.4-8.7c-0.6-1.7,0.4-3.6,2.1-4.1
		c1.7-0.6,3.5,0.4,4.1,2.1c0.9,2.6,2.1,5,3.6,7.1c3.1,4.4,7.2,7.5,11.3,9.3c3.9,1.7,7.6,2.1,10.1,1.2
		C2116.3,1347.4,2116.7,1347.2,2117.1,1346.9z" clip-rule="evenodd"/><circle cx="2142.1" cy="1253.1" r="7.7" fill="#250C5E" fill-rule="evenodd" clip-rule="evenodd"/><path fill="#250C5E" fill-rule="evenodd" d="M1709.9,1855.3l-91.2-67.6c-18.9-14-28.4-34.2-6.4-66.6l47.6-67.9
		l178.6,108.7L1709.9,1855.3z" clip-rule="evenodd"/><path fill="#FEF080" fill-rule="evenodd" d="M2412.9,1565.4l17.5-23c1.5-1.9,4.2-2.3,6.1-0.9
		c1.9,1.5,2.3,4.2,0.8,6.1l-24.5,32.3c-0.7,1.8-1.6,3.5-2.8,5l-10.1,13.3c-3,3.9-7.1,6.4-11.5,7.5c-4.4,5.8-8.8,11.6-13.2,17.3
		l-20-15.2c3.2-4.3,6.5-8.6,9.7-12.8c-1-2.1-1.7-4.3-2-6.6c-1.1-8.1,2.1-24.5,4.9-32c3-7.8,7.4-15,13.1-22.3
		c1.5-1.9,4.2-2.2,6.1-0.7c1.9,1.5,2.2,4.2,0.7,6.1c-5.5,7-10.1,14.5-12.9,23c1.5-2,2.9-4,4.8-5.7l29.8-39.2
		c1.5-1.9,4.2-2.3,6.1-0.8c1.9,1.5,2.3,4.2,0.8,6.1l-21.8,28.8c0.7,0,1.4,0.1,2.1,0.2l25-33c1.5-1.9,4.2-2.3,6.1-0.8
		c1.9,1.5,2.3,4.2,0.8,6.1l-23.6,31c0.5,0.3,1,0.7,1.4,1.1l19.7-25.9c1.5-1.9,4.2-2.3,6.1-0.8c1.9,1.5,2.3,4.2,0.8,6.1l-21.1,27.7
		C2412.4,1564.1,2412.7,1564.8,2412.9,1565.4z" clip-rule="evenodd"/><path fill="#ED3FC1" fill-rule="evenodd" d="M2117.8,1530.1c10.4,59.1,26.5,99.5,46.1,125.1
		c15.1,19.8,32.2,30.1,49.7,33c18,2.9,37.8-1.7,57.5-11.8c30.1-15.4,59.1-43,82.5-76.3l41.9,29.4c-28.1,40-63.7,73.5-101.1,92.7
		c-29,14.8-59.4,21.4-89,16.6c-30.2-4.9-58.4-21.3-82.2-52.5c-24.4-31.9-44.1-79.8-56-147.5L2117.8,1530.1z" clip-rule="evenodd"/><path fill="#250C5E" fill-rule="evenodd" d="M1735.9,1825.7c-79.3,64.8-163,95.1-235.6,95
		c-46-0.1-87.8-12.1-121.9-35.2c-34.7-23.5-61-58.1-75.3-102.5c-17.7-55.4-16.4-126.2,11.9-209.9l-51.8-59.2l132.7,62
		c-30.1,77-33.9,138.7-19.5,183.7c8.8,27.3,24.5,48.3,45.2,62.3c21.3,14.4,48.2,22,78.5,22c55.9,0.1,122.1-24.7,187-77.8
		L1735.9,1825.7z" clip-rule="evenodd"/><path fill="#250C5E" fill-rule="evenodd" d="M1715.9,1771.1c97.8,47.7,213.2,113.5,328.2,185.9
		c108.4,68.3,216,142.3,307.7,212.5l115.4-33.9l-145.5,108.2c-94.4-73.3-206.4-150.8-318.6-221.5c-112.2-70.7-225.1-135-321-181.8
		L1715.9,1771.1z" clip-rule="evenodd"/><path fill="#ED3FC1" fill-rule="evenodd" d="M1983,1346.7c75.2,44.5,128.7,108.3,139.6,209.8
		c-152.4-11.4-254.1,206.5-285.6,277.8l-265.4-141.9C1626,1484.1,1820.2,1329.7,1983,1346.7z" clip-rule="evenodd"/><path fill="#ED3FC1" fill-rule="evenodd" d="M1962.9,1395.1c-97.1-57-189.2-81.5-275.4-87.9
		c-86.7-6.4-168.5,5.7-244,21.6l-10.5-50.4c79.1-16.7,165.2-29.2,258.3-22.4c93.5,6.9,193,33.3,297.5,94.7L1962.9,1395.1z" clip-rule="evenodd"/><polygon fill="#250C5E" fill-rule="evenodd" points="1313.8 1176.7 1350.3 1477.1 1124.4 1519.2 1084.9 1194.2" clip-rule="evenodd"/><path fill="#AC2984" fill-rule="evenodd" d="M1312.9,1168.7l38.5,316.7l-76.8,9.3
			c-20.5,2.5-39.2-12.2-41.7-32.7l-30.1-247.8c-2.1-17.4,10.4-33.4,27.8-35.5L1312.9,1168.7z" clip-rule="evenodd"/><polygon fill="#FEF080" fill-rule="evenodd" points="1215.7 1321.4 1219.4 1351.5 1198.6 1350.2 1195.9 1327.7" clip-rule="evenodd"/><path fill="#AC2984" fill-rule="evenodd" d="M1326,1277.1l23.8-2.9c6.1-0.7,12,1.1,16.6,4.6
			c4.5,3.6,7.7,8.8,8.5,15l5.9,48.3c0.7,6.1-1.1,12-4.6,16.6c-3.6,4.5-8.8,7.7-15,8.5l-23.8,2.9l-2.7-22l4.1-0.5l1.7,13.8l19.6-2.4
			c3.9-0.5,7.2-2.5,9.4-5.3c2.2-2.9,3.4-6.6,2.9-10.4l-5.9-48.3c-0.5-3.9-2.5-7.2-5.3-9.4c-2.9-2.2-6.6-3.4-10.4-2.9l-19.6,2.4
			l1.4,11.7l-4.1,0.5L1326,1277.1z" clip-rule="evenodd"/><g><polygon fill="#250C5E" fill-rule="evenodd" points="152.9 1675.7 434.5 1727.3 408.9 1943.2 104.3 1887.4" clip-rule="evenodd"/><path fill="#AC2984" fill-rule="evenodd" d="M145.4,1674.3l296.9,54.4l-13.2,72c-3.5,19.2-22.1,32-41.3,28.5
			l-232.3-42.6c-16.3-3-27.2-18.8-24.2-35.1L145.4,1674.3z" clip-rule="evenodd"/><polygon fill="#FEF080" fill-rule="evenodd" points="256 1805.1 284.2 1810.2 277.1 1828.6 256.1 1824.7" clip-rule="evenodd"/><path fill="#AC2984" fill-rule="evenodd" d="M247,1693l4.1-22.3c1.1-5.8,4.4-10.6,8.9-13.7
			c4.5-3.1,10.2-4.5,15.9-3.4l45.3,8.3c5.8,1.1,10.6,4.4,13.7,8.9c3.1,4.5,4.5,10.2,3.4,15.9l-4.1,22.3l-20.7-3.8l0.7-3.9l12.9,2.4
			l3.4-18.4c0.7-3.6-0.2-7.2-2.2-10c-2-2.8-5-4.9-8.6-5.6l-45.3-8.3c-3.6-0.7-7.2,0.2-10,2.2c-2.8,2-4.9,5-5.6,8.6l-3.4,18.4l11,2
			l-0.7,3.9L247,1693z" clip-rule="evenodd"/><path fill="#FEF080" fill-rule="evenodd" d="M946.3,1937.5c4.9,9.3,10.2,18.3,17.7,22.8c2,1.2,2.7,3.8,1.7,5.8
		c-1,2-3.5,2.8-5.4,1.6c-10.7-6.3-16.9-18.5-22.9-30.1c-0.9-1.7-1.8-3.4-2.7-5.1c-1.3-1.1-2.4-2.4-3.3-3.9l-8.5-13.3
		c-2.5-3.9-3.4-8.4-3-12.6l-11.1-17.3c6.7-4.3,13.3-8.6,20-12.9l8.2,12.8c2.2-0.3,4.4-0.2,6.5,0.3c0.3,0.1,0.5,0.1,0.8,0.2
		c0.2,0,0.4,0,0.7,0c9,1.2,17,2.7,23.3,6.5c6.7,4.1,11.1,10.6,12.3,21.6c0.2,2.3-1.4,4.3-3.7,4.5c-2.3,0.2-4.3-1.4-4.5-3.7
		c-0.9-8-3.9-12.7-8.4-15.5c-1.9-1.2-4.1-2.1-6.5-2.8l7,10.8c1.3,2,2.1,4.1,2.6,6.3c1.3,2.2,2.5,4.3,3.8,6.3
		c3.6,5.3,7.2,9.3,10.6,11.5c2.6,1.7,5,2.3,6.8,1.4c0.2-0.1,0.4-0.2,0.7-0.4c1.9-1.3,4.5-0.8,5.7,1.1c1.3,1.9,0.8,4.5-1.1,5.7
		c-0.5,0.4-1.1,0.7-1.8,1c-4.6,2.2-9.7,1.4-14.8-1.9c-3.9-2.5-7.8-6.5-11.6-11.7c-0.2,0.4-0.4,0.8-0.6,1.1
		c6.9,10.5,15.3,20.1,30.3,24.3c2.2,0.6,3.5,2.9,2.9,5.1c-0.6,2.2-2.9,3.5-5.1,2.9c-16.9-4.8-26.3-14.9-33.8-26
		c-0.2,0.1-0.4,0.3-0.6,0.4c-0.4,0.2-0.7,0.4-1.1,0.6c6.5,10.1,14.4,19.8,26.4,24.1c2.2,0.8,3.3,3.1,2.5,5.3
		c-0.8,2.1-3.1,3.3-5.3,2.5c-15.3-5.4-24.5-17.5-31.9-29.5C948.1,1937.5,947.2,1937.5,946.3,1937.5z" clip-rule="evenodd"/><path fill="#250C5E" fill-rule="evenodd" d="M390.8,2017.4l47.1,143.2l5.6-80.7
		c112.7-26.7,185.6-75.5,222.2-129.4c20.1-29.7,29.7-61.1,29.4-91.8c-0.4-31.3-11.1-61.3-31.5-87.6c-32.8-42.1-91.1-74.1-171.5-84.1
		l-8.8,72.3c59.8,7.4,101.2,28.8,122.7,56.4c10.5,13.5,16,28.5,16.2,43.9c0.2,16-5.3,33.1-16.7,49.9
		C558.5,1978.6,467.1,1998.7,390.8,2017.4z" clip-rule="evenodd"/><path fill="#250C5E" fill-rule="evenodd" d="M690.4,1731.5c-2.1,0.3-64,39.5-66.2,39.3l-132.7-10.2
		c-56.6-4.3-46.8-114.3-34.8-128.5l240.7,24.4L690.4,1731.5z" clip-rule="evenodd"/><path fill="#250C5E" fill-rule="evenodd" d="M629.5,1698.5c44.6,6.6,92.2,29.9,129.8,66
		c24.4,23.5,44.8,52.5,57.6,85.9c12.9,33.7,18.1,71.7,12,112.9c-7.9,53.4-34.8,111.9-88.9,172.6l77.8,39.8l-186.6-16.5
		c43.4-62.2,114.1-129,125.5-206.4c4.1-28,0.6-53.7-8-76.4c-8.8-23-22.9-43-39.9-59.3c-26.5-25.5-59.4-41.8-89.8-46.3L629.5,1698.5z
		" clip-rule="evenodd"/><path fill="#0FDEFF" fill-rule="evenodd" d="M890.8,1552c-155.5-55-191.2,67.5-193.1,163.7l-268-28.5
		c-0.6-90.1,34-174.2,75.5-222.6c138.7-161.8,438.1-110.2,389.8,73.1C894.3,1540.6,891.8,1548.8,890.8,1552z" clip-rule="evenodd"/><path fill="#0FDEFF" fill-rule="evenodd" d="M895.1,1537.6c-21.8,68.6-23.4,127.8-13.3,180
		c11.7,60.7,39.4,112.9,69.4,159.7l-40.9,26.3c-32.7-51.1-63-108.5-76.2-176.8c-11.4-59-9.9-125.3,13.9-201.3L895.1,1537.6z" clip-rule="evenodd"/><path fill="#250C5E" fill-rule="evenodd" d="M783.6,1524.1c7.5,7.5,9.4,9.6,12.4,15.9
		c-9.7,99.7-55.9,83.9-29.7,227.3l20.3,11.9l9.9-25.2c-19.5-106.3,19.9-122,3.9-215.4c3.6-4.5,5.9-8.7,7.4-19l-11.1-17.7
		L783.6,1524.1z" clip-rule="evenodd"/><path fill="#FEF080" fill-rule="evenodd" d="M279.7,1613.7c2.5-11.5,5-23.1,7.6-34.6
		c7.7,1.7,15.5,3.4,23.2,5.1c-1.5,6.8-3,13.6-4.5,20.4c2.3,1.1,4.3,2.7,6,4.6c0.2,0.2,0.3,0.4,0.5,0.6c0.2,0.1,0.4,0.3,0.5,0.4
		c6.6,6.3,12.1,12.2,14.9,19c3,7.3,2.7,15.1-2.8,24.7c-1.1,2-3.7,2.6-5.6,1.5c-2-1.1-2.6-3.7-1.5-5.6c4.1-7,4.3-12.5,2.3-17.5
		c-0.8-2-2.1-4-3.6-6.1l-0.8,12.8c-0.1,2.3-0.7,4.6-1.6,6.6c-0.3,2.6-0.5,5-0.6,7.3c-0.2,6.4,0.4,11.8,1.8,15.5
		c1.1,2.9,2.7,4.7,4.7,5.1c0.3,0,0.5,0.1,0.8,0.1c2.3,0.1,4.1,2,4,4.3c-0.1,2.3-2,4.1-4.3,4c-0.7,0-1.4-0.1-2-0.2
		c-5-1-8.6-4.6-10.8-10.3c-1.6-4.3-2.5-9.8-2.4-16.3c-0.4,0.2-0.8,0.4-1.2,0.6c-0.6,12.6,0.5,25.2,10.1,37.5
		c1.4,1.8,1.1,4.4-0.7,5.8c-1.8,1.4-4.4,1.1-5.8-0.7c-10.8-13.8-12.4-27.5-11.9-40.9c-0.2,0-0.5,0-0.7,0c-0.4,0-0.8-0.1-1.3-0.1
		c-0.8,12-0.1,24.5,7.1,35c1.3,1.9,0.8,4.5-1.1,5.7c-1.9,1.3-4.5,0.8-5.7-1.1c-9.1-13.4-9.4-28.5-8.3-42.6c-0.8-0.5-1.5-1-2.2-1.6
		c-1.5,10.3-2.6,20.8,0.8,28.9c0.9,2.1,0,4.6-2.1,5.7c-2,1-4.4,0.2-5.3-1.9c-4.9-11.4-2.8-24.9-0.8-37.8c0.3-1.9,0.6-3.8,0.9-5.7
		c-0.3-1.7-0.5-3.4-0.4-5.1l0.9-15.8C278,1618.4,278.6,1615.9,279.7,1613.7z" clip-rule="evenodd"/><path fill="#0FDEFF" fill-rule="evenodd" d="M744.5,1415.9c-35-14.3-68.9-23.8-101.3-28.9
		c-72.7-11.5-137.8-1-190.4,26.4c-51.8,27-91.6,70.8-114.3,126.1c-8,19.6-13.9,40.8-17.5,63.2l-47.9-7.6c4.1-26.1,11-50.8,20.5-73.9
		c27.1-66.1,74.7-118.4,136.8-150.8c61.5-32.1,136.9-44.5,220.3-31.3c36,5.7,73.5,16.2,112,31.9L744.5,1415.9z" clip-rule="evenodd"/><g><path fill="#FEF080" fill-rule="evenodd" d="M931.3,1315.2c-26.5-0.5-53.5,3.1-80.2,11.3
			c-33.2,10.1-62.9,23.8-88.3,44.4l33.9,131c20.9-32.8,60.2-79.4,78-90.7l7.9,14.8c19.4-6.4,61.9-32.7,73.5-59L931.3,1315.2z" clip-rule="evenodd"/><path fill="#250C5E" fill-rule="evenodd" d="M967.1,1391.7c-28.8-3.4-38.8-46.7-34.7-71.5
			c-6.4,17.2-20.1,17-42,15.2l-1.8-8.9l15-3.2c-1.6-3.1-2.7-7-3.1-11.1c10.3-2.4,20.4-5.5,30.2-9.5
			C947.8,1322.4,963.3,1365.8,967.1,1391.7z" clip-rule="evenodd"/><path fill="#FEF080" fill-rule="evenodd" d="M904,1314.9c2.8,4.1,0.2,9.8-5.7,12.7c-5.9,2.9-13,2-15.8-2.1
			c-2.8-4.1-0.2-9.8,5.7-12.7C894.1,1309.9,901.2,1310.8,904,1314.9z" clip-rule="evenodd"/><path fill="#250C5E" fill-rule="evenodd" d="M922.6 1366.6c-3.1-3.3-8.2-3.5-11.5-.5-3.3 3.1-3.5 8.2-.5 11.5 3.1 3.3 8.2 3.5 11.5.5C925.5 1375.1 925.7 1369.9 922.6 1366.6zM938.7 1389c-2.7-3-7.4-3.1-10.3-.4-3 2.7-3.1 7.4-.4 10.3 2.7 3 7.4 3.1 10.3.4C941.2 1396.6 941.4 1392 938.7 1389zM820.9 1406.5c-1.6.6-3.3-.2-3.9-1.7-.6-1.6.2-3.3 1.7-3.9 8.4-3.3 14.9-3 19.7.3l.2.1c4.7 3.2 7.5 9.1 9 17 .3 1.7-.8 3.2-2.5 3.5-1.7.3-3.2-.8-3.5-2.5-1.1-6.3-3.2-10.8-6.4-13.1l-.1-.1C831.9 1404 827.3 1404 820.9 1406.5z" clip-rule="evenodd"/></g></g><g><polygon fill="#250C5E" fill-rule="evenodd" points="720.9 389.5 933.4 444.6 901.9 608.2 672.1 548.7" clip-rule="evenodd"/><path fill="#AC2984" fill-rule="evenodd" d="M715.3,388.1l223.9,58l-14.1,54.3c-3.7,14.5-18.7,23.2-33.1,19.5
			l-175.2-45.4c-12.3-3.2-19.8-15.9-16.6-28.2L715.3,388.1z" clip-rule="evenodd"/><polygon fill="#FEF080" fill-rule="evenodd" points="792.6 494.1 813.9 499.6 807.4 513.3 791.6 509.1" clip-rule="evenodd"/><path fill="#AC2984" fill-rule="evenodd" d="M791.9,407.9l4.4-16.8c1.1-4.3,3.9-7.8,7.5-10
			c3.6-2.1,8-2.9,12.4-1.7l34.2,8.8c4.3,1.1,7.8,3.9,10,7.5c2.1,3.6,2.9,8,1.7,12.4l-4.4,16.8l-15.6-4l0.8-2.9l9.7,2.5l3.6-13.9
			c0.7-2.7,0.2-5.5-1.1-7.8c-1.3-2.3-3.5-4-6.3-4.7l-34.2-8.8c-2.7-0.7-5.5-0.2-7.8,1.1c-2.3,1.3-4,3.5-4.7,6.3l-3.6,13.9l8.3,2.1
			l-0.8,2.9L791.9,407.9z" clip-rule="evenodd"/><path fill="#250C5E" fill-rule="evenodd" d="M799.1,769l43.2-43.9c66.8,28.3,122,41.2,166.1,42
		c41.7,0.7,74.5-9.4,98.8-28c25.3-19.4,40.4-46.9,46-80.3c5.2-30.7,2.1-66.4-8.5-104.8l-53.8,15.1c8.5,30.6,11.1,58,7.3,80.5
		c-3.3,19.5-11.4,35-24.8,45.3c-14.4,11-35.6,17-64.1,16.5c-41.3-0.7-95.9-14.9-164.9-46.2C828.2,700.3,814.3,733.3,799.1,769z" clip-rule="evenodd"/><path fill="#250C5E" fill-rule="evenodd" d="M1120.3,659.1c-64.9-17.6-79.4-25.6-140.7-56.5
		c-15.2-7.7-24.5-20.9-12.8-46.8l25.7-54.4l145,57.2L1120.3,659.1z" clip-rule="evenodd"/><path fill="#FEF080" fill-rule="evenodd" d="M824.2 378.6c-2.2 7.7-4 15.6-2.1 22 .5 1.7-.5 3.5-2.1 4.1-1.7.6-3.4-.3-3.9-2-2.6-9.1.3-19.2 3-28.8.4-1.4.8-2.9 1.2-4.3-.1-1.3 0-2.6.2-3.9l2.2-11.9c.6-3.5 2.5-6.5 5-8.6l2.9-15.5c6 1.1 11.9 2.2 17.9 3.3l-2.1 11.5c5 3.7 12.5 16 13.7 20.4 1.6 5.8.6 11.8-4.5 18.5-1.1 1.4-3 1.7-4.4.6-1.4-1.1-1.7-3-.6-4.4 3.7-4.9 4.5-9.1 3.4-13-.4-1.6-1.2-3.3-2.1-4.9-.8 4.3-1.5 10.9-3.6 14.6-.5 1.9-.9 3.7-1.1 5.5-.8 4.9-.8 9-.1 12 .6 2.3 1.6 3.9 3 4.3 1.8.6 3.6 1.2 3.2 3.8-.3 1.7-1.9 2.9-3.6 2.6-.5-.1-1-.2-1.5-.4-3.7-1.2-6.1-4.3-7.2-8.8-.8-3.4-.9-7.7-.3-12.6-.3.1-.6.2-.9.3-1.7 9.5-2 19.2 4.1 29.5.9 1.5.4 3.4-1.1 4.3-1.5.9-3.4.4-4.3-1.1-6.9-11.5-6.9-22.1-5.2-32.3-.5-.1-1-.2-1.5-.3-1.7 9-2.4 18.6 2.1 27.3.8 1.6.2 3.5-1.4 4.3-1.6.8-3.5.2-4.3-1.4-5.7-11-4.5-22.6-2.3-33.2C825.1 379.6 824.6 379.2 824.2 378.6zM1412.9 430.6l18.6-9.7c1.6-.8 3.5-.2 4.3 1.3.8 1.5.2 3.4-1.4 4.3l-26 13.5c-1 .9-2.1 1.8-3.4 2.4l-10.8 5.6c-3.2 1.6-6.6 2-9.9 1.4-4.7 2.4-9.3 4.9-14 7.3l-8.4-16.2 10.4-5.4c0-1.7.2-3.4.7-4.9.5-1.7 1.4-3.3 2.5-4.7 2.9-5.9 6.4-10.7 10.7-14.7 4.4-4.2 9.5-7.6 15.5-10.6 1.6-.8 3.5-.1 4.2 1.4.8 1.6.1 3.5-1.4 4.2-5.5 2.7-10.1 5.7-13.9 9.4-.6.5-1.1 1.1-1.6 1.6l2.2-1.2c.9-.5 1.8-.8 2.7-1.1l31.7-16.5c1.5-.8 3.5-.2 4.3 1.4.8 1.5.2 3.5-1.4 4.3l-23.2 12.1c.4.2.9.5 1.3.8L1433 403c1.5-.8 3.5-.2 4.3 1.4.8 1.5.2 3.5-1.4 4.3l-25.1 13c.2.4.4.7.6 1.1l21-10.9c1.5-.8 3.5-.2 4.3 1.4.8 1.5.2 3.5-1.4 4.3l-22.4 11.6C1412.9 429.6 1412.9 430.2 1412.9 430.6z" clip-rule="evenodd"/><path fill="#ED3FC1" fill-rule="evenodd" d="M1232,317.1c-13.8,50.4-16.1,88.4-9.7,114.8
		c3.8,15.5,10.6,26.4,19.7,32.8c9,6.4,21.1,8.9,35.4,7.6c23.8-2.1,52.8-14.4,84.3-36.5l21.4,30.5c-37,25.9-72.3,40.4-102.4,43.1
		c-23.1,2.1-43.5-2.6-60.1-14.3c-16.5-11.7-28.4-29.8-34.4-54.4c-7.9-32.2-5.7-76.6,9.9-133.3L1232,317.1z" clip-rule="evenodd"/><path fill="#250C5E" fill-rule="evenodd" d="M1010.8,555.1c60,24.3,141.1,77,183.2,167.5
		c26.7,57.4,37.6,129.6,17.2,218.4l56.4,49.7c-39.2-12.5-78.2-25.8-117.4-37.1c25.4-87,17.3-155.2-7-207.5
		c-34.8-74.8-102.8-118.8-153.3-139.2L1010.8,555.1z" clip-rule="evenodd"/><path fill="#ED3FC1" fill-rule="evenodd" d="M1072.7,224.3c63.2,4.5,119.4,30.6,159.4,92.9
		c-89.1,115-78.6,169.1-66.3,271.3l-223.5-40C927.1,386.5,994.4,294,1072.7,224.3z" clip-rule="evenodd"/><path fill="#ED3FC1" fill-rule="evenodd" d="M1096.7,259.5c-22.5-21.7-51.2-35.3-80.9-40.2
		c-22.2-3.6-44.9-2.4-66.2,3.9c-20.9,6.2-40.3,17.5-56.2,33.9c-18.9,19.6-32.9,46.8-38.7,82.1l-36.7-5.9
		c7.1-43.4,24.8-77.3,48.7-102.1c20.5-21.3,45.5-35.7,72.4-43.8c26.6-7.9,55-9.5,82.6-5c37,6.1,72.7,23,100.9,50.2L1096.7,259.5z" clip-rule="evenodd"/><path fill="#FEF080" fill-rule="evenodd" d="M1267.4,125.3c6,30.2,3.2,62-8.6,91.3c-4.2-1.3-8.4-2.7-12.6-4
		c-6.8,15.8-15.9,31.2-27.3,45.5c-12.3,15.4-45.8,47.1-64.5,52.6l-31.7-77.9c21.3-10.9,41.5-27.1,58.2-48.1
		c18.7-23.4,30.6-49.6,35.7-75.4c4.5,0,10,1.2,17.4,3.9C1248.3,118.4,1252.9,120.1,1267.4,125.3z" clip-rule="evenodd"/><circle cx="1251.6" cy="165.8" r="6.3" fill="#250C5E" fill-rule="evenodd" clip-rule="evenodd"/><path fill="#250C5E" fill-rule="evenodd" d="M1285.4,134.6c-16.3,14-44.7-1.4-56.9-15.5
		c6.4,12.3,0.7,20.4-8.9,32.6l-6.1-3.6l4.2-11c-2.5-0.7-5.3-2-8-4c2.8-7.8,5-15.7,6.6-23.8C1235.5,109.2,1269.5,123.8,1285.4,134.6z
		" clip-rule="evenodd"/><ellipse cx="1211.8" cy="141.7" fill="#FEF080" fill-rule="evenodd" clip-rule="evenodd" rx="9.6" ry="6.5" transform="rotate(-82.796 1211.805 141.704)"/><path fill="#250C5E" fill-rule="evenodd" d="M1235.3,222.9c1.1,0.8,1.3,2.3,0.5,3.3c-0.8,1.1-2.3,1.3-3.3,0.5
		l-18-13.2c-1.1-0.8-1.3-2.3-0.5-3.3c0.8-1.1,2.3-1.3,3.3-0.5L1235.3,222.9z" clip-rule="evenodd"/><circle cx="1270.2" cy="164.9" r="5.6" fill="#250C5E" fill-rule="evenodd" clip-rule="evenodd"/><path fill="#250C5E" fill-rule="evenodd" d="M1140.8,323.7c4.9,6.8,6,8.7,7.6,13.7
		c-10.3,17.6-13.6,24.2-15.5,49.1c-2.8,36.1-52.7,29.2-74.3,23.1l-18.2,15.3l8.6,10c40.9,11.7,115.1,11,100.6-52.4
		c-4.4-19.3-2.4-28.4,1.7-44.8c3.9-2.6,6.4-5,9.3-12.4l-6.3-14.7L1140.8,323.7z" clip-rule="evenodd"/></g><g><path fill="#ED3FC1" fill-rule="evenodd" d="M2221.5 1418.1l0 5.5-16.4 0 0-5.5L2221.5 1418.1 2221.5 1418.1zM2568 1421.9l-33.4-16.8 0 14-1.2 0 0 5.5 1.2 0 0 14L2568 1421.9 2568 1421.9zM2516.9 1419.1l0 5.5-16.4-.1 0-5.5L2516.9 1419.1 2516.9 1419.1zM2484.1 1418.9l0 5.5-16.4-.1 0-5.5L2484.1 1418.9 2484.1 1418.9zM2451.3 1418.8l0 5.5-16.4-.1 0-5.5L2451.3 1418.8 2451.3 1418.8zM2418.5 1418.7l0 5.5-16.4-.1 0-5.5L2418.5 1418.7 2418.5 1418.7zM2385.6 1418.6l0 5.5-16.4-.1 0-5.5L2385.6 1418.6 2385.6 1418.6zM2352.8 1418.5l0 5.5-16.4-.1 0-5.5L2352.8 1418.5 2352.8 1418.5zM2320 1418.4l0 5.5-16.4 0 0-5.5L2320 1418.4 2320 1418.4zM2287.2 1418.3l0 5.5-16.4 0 0-5.5L2287.2 1418.3 2287.2 1418.3zM2254.3 1418.2l0 5.5-16.4-.1 0-5.5L2254.3 1418.2zM2294.7 1829.9l-57.9 28.8 0-24.2-2.1 0 0-9.5 2.1 0 0-24.2L2294.7 1829.9 2294.7 1829.9zM2225.3 1834.5l0-9.5-9.5 0 0 9.5L2225.3 1834.5 2225.3 1834.5zM2206.4 1834.5l0-9.5-9.5 0 0 9.5L2206.4 1834.5 2206.4 1834.5zM2187.5 1834.5l0-9.5-9.5 0 0 9.5L2187.5 1834.5 2187.5 1834.5zM2168.6 1834.4l0-9.5-9.5 0 0 9.5L2168.6 1834.4 2168.6 1834.4zM2149.6 1834.4l0-9.5-9.5 0 0 9.5L2149.6 1834.4 2149.6 1834.4zM2130.7 1834.4l0-9.5-9.5 0 0 9.5L2130.7 1834.4 2130.7 1834.4zM2111.8 1834.4l0-9.5-9.5 0 0 9.5L2111.8 1834.4 2111.8 1834.4zM2092.9 1834.3l0-9.5-9.5 0 0 9.5L2092.9 1834.3 2092.9 1834.3zM2074 1834.3l0-9.5-9.5 0 0 9.5L2074 1834.3 2074 1834.3zM2055.1 1834.3l0-9.5-9.5 0 0 9.5L2055.1 1834.3 2055.1 1834.3zM2036.2 1834.3l0-9.5-9.5 0 0 9.5L2036.2 1834.3 2036.2 1834.3zM2017.3 1834.2l0-9.5-9.5 0 0 9.5L2017.3 1834.2z" clip-rule="evenodd"/><path fill="#7D23B6" fill-rule="evenodd" d="M1814.3,2022l-86.7,43.2l0.1-36.2l-3.1,0l0-14.2l3.1,0l0.1-36.2
		L1814.3,2022L1814.3,2022z M1710.4,2029l0-14.2l-14.2,0l0,14.1L1710.4,2029L1710.4,2029z M1682.1,2028.9l0-14.1l-14.1,0l0,14.1
		L1682.1,2028.9L1682.1,2028.9z M1653.8,2028.9l0-14.2l-14.2,0l0,14.2L1653.8,2028.9L1653.8,2028.9z M1625.5,2028.8l0-14.1l-14.2,0
		l0,14.1L1625.5,2028.8L1625.5,2028.8z M1597.2,2028.8l0-14.2l-14.2,0l0,14.2L1597.2,2028.8L1597.2,2028.8z M1568.9,2028.8l0-14.1
		l-14.2,0l0,14.1L1568.9,2028.8L1568.9,2028.8z M1540.6,2028.7l0-14.1l-14.2,0l0,14.1L1540.6,2028.7L1540.6,2028.7z M1512.3,2028.7
		l0-14.2l-14.2,0l0,14.1L1512.3,2028.7L1512.3,2028.7z M1484,2028.6l0-14.1l-14.2,0l0,14.1L1484,2028.6L1484,2028.6z M1455.7,2028.6
		l0-14.2l-14.2,0l0,14.2L1455.7,2028.6L1455.7,2028.6z M1427.4,2028.6l0-14.1l-14.2,0l0,14.1L1427.4,2028.6L1427.4,2028.6z
		 M1399.1,2028.5l0-14.1l-14.1,0l0,14.2L1399.1,2028.5z" clip-rule="evenodd"/><path fill="#FEF080" fill-rule="evenodd" d="M954,1731.3c-2.8-0.2-5.6-0.4-8.4-0.5l0.2-8.7
		c3,0.1,5.9,0.2,8.9,0.5L954,1731.3L954,1731.3z M1228.3,2118.5l-26.1-53.4l53.1,0.5L1228.3,2118.5L1228.3,2118.5z M1224,2049
		c-0.2-2.8-0.4-5.7-0.7-8.5l8.6-0.8c0.3,2.9,0.5,5.8,0.7,8.8L1224,2049L1224,2049z M1219.8,2015.1c-0.5-2.8-1.1-5.6-1.7-8.4l8.5-1.9
		c0.6,2.9,1.2,5.7,1.7,8.6L1219.8,2015.1L1219.8,2015.1z M1211.7,1981.8c-0.8-2.7-1.7-5.4-2.6-8.1l8.2-2.8c0.9,2.8,1.8,5.6,2.6,8.4
		L1211.7,1981.8L1211.7,1981.8z M1200.2,1949.6c-1.1-2.6-2.2-5.3-3.4-7.9l7.9-3.5c1.2,2.7,2.3,5.4,3.5,8.1L1200.2,1949.6
		L1200.2,1949.6z M1185.6,1918.5c-1.3-2.5-2.7-5-4.1-7.5l7.6-4.2c1.4,2.6,2.8,5.1,4.2,7.7L1185.6,1918.5L1185.6,1918.5z
		 M1168.2,1888.9c-1.6-2.4-3.1-4.8-4.7-7.2l7.2-4.9c1.6,2.4,3.2,4.9,4.8,7.3L1168.2,1888.9L1168.2,1888.9z M1148.4,1860.9
		c-1.7-2.3-3.5-4.5-5.3-6.8l6.8-5.4c1.8,2.3,3.6,4.6,5.4,6.9L1148.4,1860.9L1148.4,1860.9z M1126.3,1834.6c-1.9-2.1-3.9-4.2-5.8-6.3
		l6.3-6c2,2.1,4,4.3,6,6.4L1126.3,1834.6L1126.3,1834.6z M1102.2,1810.1c-2.1-2-4.2-3.9-6.3-5.8l5.8-6.5c2.2,2,4.3,3.9,6.5,5.9
		L1102.2,1810.1L1102.2,1810.1z M1076.2,1787.7c-2.2-1.8-4.5-3.5-6.8-5.2l5.2-7c2.3,1.7,4.7,3.5,7,5.3L1076.2,1787.7L1076.2,1787.7z
		 M1048.3,1767.8c-2.4-1.5-4.8-3-7.3-4.5l4.5-7.4c2.5,1.5,5,3.1,7.5,4.6L1048.3,1767.8L1048.3,1767.8z M1018.5,1751
		c-2.5-1.3-5.1-2.5-7.7-3.6l3.5-7.9c2.7,1.2,5.4,2.4,8,3.8L1018.5,1751L1018.5,1751z M987,1738.2c-2.7-0.9-5.4-1.6-8.1-2.4l2.2-8.4
		c2.8,0.8,5.7,1.6,8.5,2.5L987,1738.2z" clip-rule="evenodd"/><path fill="#0FDEFF" fill-rule="evenodd" d="M1057,2357l-19.4-41l17,0.4c0.1-5.9,0.1-11.8,0-17.7l6.6-0.1
		c0.1,6,0.1,11.9,0,17.9l17,0.4L1057,2357L1057,2357z M876.5,1970.3c5.8,2.6,11.5,5.4,17.1,8.5l3.2-5.8c-5.8-3.2-11.6-6-17.6-8.7
		L876.5,1970.3L876.5,1970.3z M910.4,1988.9c5.5,3.6,10.8,7.5,15.9,11.5l4.1-5.2c-5.3-4.1-10.8-8.1-16.4-11.8L910.4,1988.9
		L910.4,1988.9z M941.3,2013.1c4.9,4.4,9.5,9,14.1,13.7l4.8-4.6c-4.6-4.9-9.4-9.5-14.4-14.1L941.3,2013.1L941.3,2013.1z
		 M968.5,2041.5c4.2,5.1,8.2,10.2,12.1,15.5l5.4-3.9c-4-5.4-8.1-10.7-12.4-15.8L968.5,2041.5L968.5,2041.5z M991.8,2073.3
		c3.6,5.5,7,11.1,10.2,16.9l5.8-3.2c-3.3-5.8-6.8-11.6-10.4-17.2L991.8,2073.3L991.8,2073.3z M1011.2,2107.6
		c2.9,5.9,5.7,11.9,8.3,17.9l6.1-2.6c-2.7-6.1-5.5-12.2-8.4-18.2L1011.2,2107.6L1011.2,2107.6z M1026.8,2143.8
		c2.3,6.2,4.4,12.4,6.4,18.7l6.3-2c-2-6.4-4.2-12.7-6.5-19L1026.8,2143.8L1026.8,2143.8z M1038.8,2181.4c1.7,6.3,3.3,12.8,4.7,19.2
		l6.5-1.4c-1.4-6.5-3-13-4.7-19.5L1038.8,2181.4L1038.8,2181.4z M1047.3,2220c1.1,6.5,2.1,13,3,19.5l6.6-0.9
		c-0.9-6.6-1.9-13.3-3-19.8L1047.3,2220L1047.3,2220z M1052.5,2259.2c0.6,6.6,1.1,13.1,1.4,19.7l6.6-0.3c-0.4-6.7-0.8-13.3-1.4-20
		L1052.5,2259.2z" clip-rule="evenodd"/><path fill="#FAA3E8" fill-rule="evenodd" d="M1944.3,584.1l-47.1-5.7l9.8-14.8l-3.9-2.6l3.8-5.8l3.9,2.6
		l9.8-14.8L1944.3,584.1L1944.3,584.1z M1496.7,419.1l1.1-0.4l2.4,6.5l-6.3,2.4L1496.7,419.1L1496.7,419.1z M1506.7,422.8l-2.4-6.5
		l6.5-2.4l2.4,6.5L1506.7,422.8L1506.7,422.8z M1519.6,417.9l-2.4-6.5l6.5-2.4l2.4,6.5L1519.6,417.9L1519.6,417.9z M1532.6,413
		l-2.4-6.5l6.5-2.4l2.4,6.5L1532.6,413L1532.6,413z M1539.6,413l5.7-3.9l3.9,5.7l-5.7,3.9L1539.6,413L1539.6,413z M1547.4,424.4
		l5.7-3.9l3.9,5.7l-5.7,3.9L1547.4,424.4L1547.4,424.4z M1555.2,435.9l5.7-3.9l3.9,5.7l-5.7,3.9L1555.2,435.9L1555.2,435.9z
		 M1563,447.4l5.7-3.9l3.9,5.7l-5.7,3.9L1563,447.4L1563,447.4z M1570.8,458.8l5.7-3.9l3.9,5.7l-5.7,3.9L1570.8,458.8L1570.8,458.8z
		 M1578.6,470.3l5.7-3.9l3.9,5.7l-5.7,3.9L1578.6,470.3L1578.6,470.3z M1586.4,481.7l5.7-3.9l3.9,5.7l-5.7,3.9L1586.4,481.7
		L1586.4,481.7z M1594.2,493.2l5.7-3.9l3.9,5.7l-5.7,3.9L1594.2,493.2L1594.2,493.2z M1607.4,501.5l-1.4-6.8l6.8-1.4l1.4,6.8
		L1607.4,501.5L1607.4,501.5z M1621,498.6l-1.4-6.8l6.8-1.4l1.4,6.8L1621,498.6L1621,498.6z M1634.5,495.8l-1.4-6.8l6.8-1.4l1.4,6.8
		L1634.5,495.8L1634.5,495.8z M1648.1,492.9l-1.4-6.8l6.8-1.4l1.4,6.8L1648.1,492.9L1648.1,492.9z M1661.6,490l-1.4-6.8l6.8-1.4
		l1.4,6.8L1661.6,490L1661.6,490z M1675.2,487.2l-1.4-6.8l6.8-1.4l1.4,6.8L1675.2,487.2L1675.2,487.2z M1688.8,484.3l0-0.2l-1.1-0.9
		l0.5-1.9l-0.8-3.8l3.5-0.7l5.2,4.3l-4.4,5.3l-2.6-2.2L1688.8,484.3L1688.8,484.3z M1696.9,490.8l4.4-5.3l5.3,4.4l-4.4,5.3
		L1696.9,490.8L1696.9,490.8z M1707.5,499.7l4.4-5.3l5.3,4.4l-4.4,5.3L1707.5,499.7L1707.5,499.7z M1718.2,508.5l4.4-5.3l5.3,4.4
		l-4.4,5.3L1718.2,508.5L1718.2,508.5z M1728.9,517.4l4.4-5.3l5.3,4.4l-4.4,5.3L1728.9,517.4L1728.9,517.4z M1739.5,526.3l4.4-5.3
		l5.3,4.4l-4.4,5.3L1739.5,526.3L1739.5,526.3z M1750.2,535.1l4.4-5.3l5.3,4.4l-4.4,5.3L1750.2,535.1L1750.2,535.1z M1760.9,544
		l4.4-5.3l5.3,4.4l-4.4,5.3L1760.9,544L1760.9,544z M1771.5,552.8l4.4-5.3l1.7,1.4l0.1-0.1l0.1,0.3l1.5,1.3l-0.5,0.6l2,4l-4.2,2.1
		L1771.5,552.8L1771.5,552.8z M1787.1,551.9l-3.1-6.2l6.2-3.1l3.1,6.2L1787.1,551.9L1787.1,551.9z M1799.5,545.6l-3.1-6.2l6.2-3.1
		l3.1,6.2L1799.5,545.6L1799.5,545.6z M1811.8,539.3l-3.1-6.2l6.2-3.1l3.1,6.2L1811.8,539.3L1811.8,539.3z M1824.2,533l-3.1-6.2
		l6.2-3.1l3.1,6.2L1824.2,533L1824.2,533z M1836.5,526.7l-3.1-6.2l6.2-3.1l3.1,6.2L1836.5,526.7L1836.5,526.7z M1845.2,522.8
		l3.8-5.8l5.8,3.8l-3.8,5.8L1845.2,522.8L1845.2,522.8z M1856.8,530.4l3.8-5.8l5.8,3.8l-3.8,5.8L1856.8,530.4L1856.8,530.4z
		 M1868.4,538.1l3.8-5.8l5.8,3.8l-3.8,5.8L1868.4,538.1L1868.4,538.1z M1879.9,545.7l3.8-5.8l5.8,3.8l-3.8,5.8L1879.9,545.7
		L1879.9,545.7z M1891.5,553.4l5.8,3.8l3.8-5.8l-5.8-3.8L1891.5,553.4z" clip-rule="evenodd"/><path fill="#FEF080" fill-rule="evenodd" d="M1346.8,605.7l-3.6,5.6l-5.6-3.6l3.6-5.6L1346.8,605.7
		L1346.8,605.7z M1889.6,719.2l25.5,25.6l-35.3,7.8L1889.6,719.2L1889.6,719.2z M1879.6,730.9l-1.9,6.4l-6.4-1.9l1.9-6.4
		L1879.6,730.9L1879.6,730.9z M1866.8,727.1l-1.9,6.4l-6.4-1.9l1.9-6.4L1866.8,727.1L1866.8,727.1z M1854,723.4l-1.9,6.4l-6.4-1.9
		l1.9-6.4L1854,723.4L1854,723.4z M1841.2,719.6l-1.9,6.4l-6.4-1.9l1.9-6.4L1841.2,719.6L1841.2,719.6z M1828.4,715.9l-1.9,6.4
		l-6.4-1.9l1.9-6.4L1828.4,715.9L1828.4,715.9z M1815.6,712.1l-1.9,6.4l-6.4-1.9l1.9-6.4L1815.6,712.1L1815.6,712.1z M1802.8,708.4
		l-1.9,6.4l-6.4-1.9l1.9-6.4L1802.8,708.4L1802.8,708.4z M1790.1,704.6l-1.9,6.4l-6.4-1.9l1.9-6.4L1790.1,704.6L1790.1,704.6z
		 M1777.3,700.8l-1.9,6.4l-6.4-1.9l1.9-6.4L1777.3,700.8L1777.3,700.8z M1764.5,697.1l-1.9,6.4l-6.4-1.9l1.9-6.4L1764.5,697.1
		L1764.5,697.1z M1751.7,693.3l-1.9,6.4l-1.9-0.6l-3.7,0l-0.1-6.7l4.7-0.1L1751.7,693.3L1751.7,693.3z M1737.5,692.6l0.1,6.7
		l-6.7,0.1l-0.1-6.7L1737.5,692.6L1737.5,692.6z M1724.2,692.8l0.1,6.7l-6.7,0.1l-0.1-6.7L1724.2,692.8L1724.2,692.8z M1710.8,692.9
		l0.1,6.7l-6.7,0.1l-0.1-6.7L1710.8,692.9L1710.8,692.9z M1697.5,693.1l0.1,6.7l-6.7,0.1l-0.1-6.7L1697.5,693.1L1697.5,693.1z
		 M1684.2,693.3l0.1,6.7l-6.7,0.1l-0.1-6.7L1684.2,693.3L1684.2,693.3z M1670.8,693.4l0.1,6.7l-6.7,0.1l-0.1-6.7L1670.8,693.4
		L1670.8,693.4z M1657.5,693.6l0.1,6.7l-6.7,0.1l-0.1-6.7L1657.5,693.6L1657.5,693.6z M1644.2,693.7l0.1,6.7l-6.7,0.1l-0.1-6.7
		L1644.2,693.7L1644.2,693.7z M1630.9,693.9l0.1,6.7l-6.7,0.1l-0.1-6.7L1630.9,693.9L1630.9,693.9z M1617.5,694l0.1,6.7l-6.7,0.1
		l-0.1-6.7L1617.5,694L1617.5,694z M1604.2,694.2l0.1,6.7l-6.7,0.1l-0.1-6.7L1604.2,694.2L1604.2,694.2z M1590.9,694.3l0.1,6.7l-3,0
		l-4.3-0.8l1.2-6.6l3.6,0.7L1590.9,694.3L1590.9,694.3z M1578.4,692.5l-1.2,6.6l-6.6-1.2l1.2-6.6L1578.4,692.5L1578.4,692.5z
		 M1565.3,690.1l-1.2,6.6l-6.6-1.2l1.2-6.6L1565.3,690.1L1565.3,690.1z M1552.2,687.6l-1.2,6.6l-6.6-1.2l1.2-6.6L1552.2,687.6
		L1552.2,687.6z M1539,685.2l-1.2,6.6l-6.6-1.2l1.2-6.6L1539,685.2L1539,685.2z M1525.9,682.8l-1.2,6.6l-6.6-1.2l1.2-6.6
		L1525.9,682.8L1525.9,682.8z M1512.8,680.3l-1.2,6.6l-6.6-1.2l1.2-6.6L1512.8,680.3L1512.8,680.3z M1499.7,677.9l-1.2,6.6l-6.6-1.2
		l1.2-6.6L1499.7,677.9L1499.7,677.9z M1486.6,675.5l-1.2,6.6l-6.6-1.2l1.2-6.6L1486.6,675.5L1486.6,675.5z M1473.5,673l-1.2,6.6
		l-6.6-1.2l1.2-6.6L1473.5,673L1473.5,673z M1460.4,670.6l-1.2,6.6l-6.6-1.2l1.2-6.6L1460.4,670.6L1460.4,670.6z M1447.3,668.2
		l-1.2,6.6l-5.3-1l-2.1-1.4l3.6-5.6l1,0.7L1447.3,668.2L1447.3,668.2z M1436.6,663.2l-3.6,5.6l-5.6-3.6l3.6-5.6L1436.6,663.2
		L1436.6,663.2z M1425.4,656l-3.6,5.6l-5.6-3.6l3.6-5.6L1425.4,656L1425.4,656z M1414.1,648.8l-3.6,5.6l-5.6-3.6l3.6-5.6
		L1414.1,648.8L1414.1,648.8z M1402.9,641.6l-3.6,5.6l-5.6-3.6l3.6-5.6L1402.9,641.6L1402.9,641.6z M1391.7,634.4l-3.6,5.6l-5.6-3.6
		l3.6-5.6L1391.7,634.4L1391.7,634.4z M1380.5,627.2l-3.6,5.6l-5.6-3.6l3.6-5.6L1380.5,627.2L1380.5,627.2z M1369.2,620l-3.6,5.6
		l-5.6-3.6l3.6-5.6L1369.2,620L1369.2,620z M1358,612.9l-3.6,5.6l-5.6-3.6l3.6-5.6L1358,612.9z" clip-rule="evenodd"/></g><g><path fill="#0FDEFF" fill-rule="evenodd" d="M1595.2,220.3v30.8h15.3v50.1h-15.3v35.1H1326V216h269.2V220.3
		L1595.2,220.3z M1586.7,255.3v-30.8h-252.2v103.3h252.2v-35.1h15.3v-33.2h-15.3V255.3z" clip-rule="evenodd"/><rect width="145.2" height="89.2" x="1343.4" y="231.6" fill="#0FDEFF" fill-rule="evenodd" clip-rule="evenodd"/><path fill="#0FDEFF" fill-rule="evenodd" d="M1373.5,101.4h-9.1l-18.5,27.7c-5.4,8.2-10.1,14.3-10.1,24.7
		c0,14.6,11.8,27.2,26.5,27.2c7.5,0,14.1-2.8,19.3-8.3c4.7-5.1,7.6-12.2,7.6-19.1c0-13.6-10.6-27.2-24.9-27.2
		c-3.4,0-6.4,0.6-9.3,2.4L1373.5,101.4L1373.5,101.4z M1343.7,153.3c0-10.5,8.2-19.3,18.7-19.3c10.9,0,19,9.3,19,19.9
		c0,10.5-8.4,19.6-19,19.6C1351.4,173.5,1343.7,164,1343.7,153.3L1343.7,153.3z M1395.3,172.7v7h49.7v-7.1h-38.9l24.3-23.1
		c7.6-7.3,15-14.1,15-25.6c0-6.4-2.9-12.3-7.4-16.8c-4.9-4.9-10.2-6.9-16.9-6.9c-15.2,0-25.8,11.5-25.1,26.6h7.8
		c-0.1-3.7,0.3-7.6,2.2-10.9c3-5,8.6-8.2,14.4-8.2c9.2,0,17.2,6.9,17.2,16.3c0,8.2-6.9,14.6-12.4,19.9L1395.3,172.7L1395.3,172.7z
		 M1534.2,101.4l-35.2,78.3h7.6l35.2-78.3H1534.2L1534.2,101.4z M1518.1,118.7c0,10.1-8.5,18.5-18.3,18.5
		c-10.1,0-18.5-8.6-18.5-18.7c0-10.5,8-18.3,18.6-18.3C1510.3,100.1,1518.1,108.5,1518.1,118.7L1518.1,118.7z M1559.5,162.8
		c0,10.1-8.5,18.2-18.4,18.2c-10.1,0-18.5-8.3-18.5-18.3c0-10.5,8.2-18.8,18.6-18.8S1559.5,152.7,1559.5,162.8L1559.5,162.8z
		 M1488.7,118.6c0-6.4,4.6-10.9,11.1-10.9c5.9,0,10.7,4.7,10.7,10.5c0,6.2-4.7,11.5-10.9,11.5
		C1493.7,129.7,1488.7,124.6,1488.7,118.6L1488.7,118.6z M1530,162.8c0-6.5,4.6-11.4,11.1-11.4c5.9,0,10.8,5.1,10.8,11
		c0,6.1-4.7,11.1-10.9,11.1C1535.1,173.5,1530,168.9,1530,162.8z" clip-rule="evenodd"/><path fill="#FEF080" fill-rule="evenodd" d="M846.9,1086.8v35.8h17.8v58.2h-17.8v40.7H534.2v-139.6h312.7
		V1086.8L846.9,1086.8z M837,1127.6v-35.8H544v119.9h293V1171h17.8v-38.5H837V1127.6z" clip-rule="evenodd"/><rect width="22.1" height="103.6" x="554.4" y="1100" fill="#FEF080" fill-rule="evenodd" clip-rule="evenodd"/><rect width="246" height="16.4" x="580.3" y="1143" fill="#FEF080" fill-rule="evenodd" clip-rule="evenodd" transform="rotate(120 703.3 1151.194)"/><path fill="#FEF080" fill-rule="evenodd" d="M541.1,1031.6v8.1h57.7v-8.2h-45.1l28.2-26.8
		c8.9-8.5,17.5-16.4,17.5-29.8c0-7.4-3.3-14.3-8.6-19.6c-5.7-5.7-11.8-8-19.7-8c-17.7,0-30,13.4-29.2,30.9h9.1
		c-0.1-4.3,0.4-8.9,2.6-12.7c3.4-5.8,10-9.5,16.7-9.5c10.7,0,19.9,8,19.9,18.9c0,9.5-8,17-14.4,23.1L541.1,1031.6L541.1,1031.6z
		 M702.4,948.8l-40.8,90.9h8.9l40.8-90.9H702.4L702.4,948.8z M683.7,968.8c0,11.7-9.8,21.5-21.3,21.5c-11.7,0-21.5-10-21.5-21.8
		c0-12.2,9.3-21.3,21.6-21.3C674.7,947.3,683.7,957,683.7,968.8L683.7,968.8z M731.8,1020.1c0,11.7-9.8,21.2-21.4,21.2
		c-11.7,0-21.5-9.6-21.5-21.3c0-12.2,9.5-21.9,21.6-21.9S731.8,1008.3,731.8,1020.1L731.8,1020.1z M649.6,968.7
		c0-7.4,5.3-12.7,12.9-12.7c6.9,0,12.4,5.4,12.4,12.2c0,7.3-5.4,13.4-12.7,13.4C655.4,981.6,649.6,975.7,649.6,968.7L649.6,968.7z
		 M697.6,1020.1c0-7.5,5.3-13.3,12.9-13.3c6.9,0,12.5,5.9,12.5,12.8c0,7.1-5.4,12.9-12.7,12.9
		C703.5,1032.5,697.6,1027.1,697.6,1020.1z" clip-rule="evenodd"/><path fill="#7D23B6" fill-rule="evenodd" d="M1932.1,1064.5v36.9h18.4v60.1h-18.4v42h-322.7v-144.1h322.7
			V1064.5L1932.1,1064.5z M1921.9,1106.5v-36.9h-302.4v123.8h302.4v-42h18.4v-39.7h-18.4V1106.5z" clip-rule="evenodd"/><rect width="281.3" height="106.9" x="1630.2" y="1078.1" fill="#7D23B6" fill-rule="evenodd" clip-rule="evenodd"/><path fill="#7D23B6" fill-rule="evenodd" d="M1642.2,930.5v85.3h9.4V922h-25.3v8.5H1642.2L1642.2,930.5z
		 M1680.8,955.8v24.4c0,9.9,0.8,18.4,7.4,26.4c6.2,7.4,14.5,10.9,24.1,10.9c9.8,0,18.3-3.8,24.5-11.6c6.2-7.9,6.9-16.2,6.9-25.8
		v-24.4c0-9.4-1.8-18.2-8.3-25.3c-6-6.6-14.3-10-23.1-10c-9.4,0-18.3,3.9-24.1,11.2C1682,939.2,1680.8,946.4,1680.8,955.8
		L1680.8,955.8z M1734.3,958v20.7c0,6-0.1,14.2-3.2,19.4c-4.1,7-10.8,10.4-18.8,10.4c-7.6,0-13.6-2.8-18-9
		c-3.9-5.7-4.1-14.1-4.1-20.8V958c0-5.6,0.5-12.8,3.2-17.8c3.6-6.5,11.6-10.7,18.9-10.7c6.9,0,14.1,3.6,17.9,9.3
		C1733.7,944,1734.3,951.9,1734.3,958L1734.3,958z M1751.1,955.8v24.4c0,9.9,0.8,18.4,7.4,26.4c6.2,7.4,14.5,10.9,24.1,10.9
		c9.8,0,18.3-3.8,24.5-11.6c6.2-7.9,6.9-16.2,6.9-25.8v-24.4c0-9.4-1.8-18.2-8.3-25.3c-6-6.6-14.3-10-23.1-10
		c-9.4,0-18.3,3.9-24.1,11.2C1752.3,939.2,1751.1,946.4,1751.1,955.8L1751.1,955.8z M1804.6,958v20.7c0,6-0.1,14.2-3.2,19.4
		c-4.1,7-10.8,10.4-18.8,10.4c-7.6,0-13.6-2.8-18-9c-3.9-5.7-4.1-14.1-4.1-20.8V958c0-5.6,0.5-12.8,3.2-17.8
		c3.6-6.5,11.6-10.7,18.9-10.7c6.9,0,14.1,3.6,17.9,9.3C1804.1,944,1804.6,951.9,1804.6,958L1804.6,958z M1918,922l-42.1,93.8h9.1
		l42.1-93.8H1918L1918,922z M1898.7,942.7c0,12.1-10.2,22.2-22,22.2c-12.1,0-22.2-10.3-22.2-22.5c0-12.6,9.6-22,22.3-22
		C1889.4,920.5,1898.7,930.5,1898.7,942.7L1898.7,942.7z M1948.3,995.7c0,12.1-10.2,21.8-22.1,21.8c-12.1,0-22.2-9.9-22.2-22
		c0-12.6,9.8-22.6,22.3-22.6C1938.9,972.9,1948.3,983.5,1948.3,995.7L1948.3,995.7z M1863.5,942.6c0-7.6,5.5-13.1,13.3-13.1
		c7.1,0,12.8,5.6,12.8,12.6c0,7.5-5.6,13.8-13.1,13.8C1869.5,955.9,1863.5,949.8,1863.5,942.6L1863.5,942.6z M1913,995.7
		c0-7.7,5.5-13.7,13.3-13.7c7.1,0,12.9,6.1,12.9,13.2c0,7.4-5.6,13.3-13.1,13.3C1919.1,1008.5,1913,1002.9,1913,995.7z" clip-rule="evenodd"/></g></svg>