<svg xmlns="http://www.w3.org/2000/svg" enable-background="new 0 0 1080 1080" viewBox="0 0 1080 1080"><path fill="#f2f2f2" d="M1039,981.5H40.7c-5.9,0-10.7-4.8-10.7-10.7v-46.5c0-5.9,4.8-10.7,10.7-10.7H1039c5.9,0,10.7,4.8,10.7,10.7
	v46.5C1049.7,976.6,1044.8,981.5,1039,981.5z"/><path fill="#2a94f4" d="M665.7,352.3v-29.6H685v-54.3h-19.3v-29.6c0-8.6-7.5-15.7-16.7-15.7H411.7c-9.2,0-16.7,7-16.7,15.7v113.5
	c0,8.6,7.5,15.7,16.7,15.7h237.2C658.2,368,665.7,361,665.7,352.3z M675.3,277.5v36.2h-9.7v-36.2H675.3z M411.7,358.9
	c-3.9,0-7.1-3-7.1-6.6V238.8c0-3.7,3.2-6.6,7.1-6.6h237.2c3.9,0,7.1,3,7.1,6.6v29.6v54.3v29.6c0,3.7-3.2,6.6-7.1,6.6H411.7z"/><rect width="23.2" height="112.9" x="413.8" y="239.6" fill="#ffbe55"/><rect width="333.9" height="312.9" x="31" y="437" fill="#e2e2e2"/><rect width="333.9" height="312.9" x="44" y="450.1" fill="none" stroke="#e2e2e2" stroke-miterlimit="10"/><polygon fill="#fff" points="81.5 749.2 30.5 749.2 313.5 437.4 364.5 437.4"/><polygon fill="#fff" points="364.9 483.6 364.9 495.7 134.5 749.6 123.5 749.6"/><g><rect width="333.9" height="312.9" x="703" y="437" fill="#e2e2e2"/><rect width="333.9" height="312.9" x="716" y="450.1" fill="none" stroke="#e2e2e2" stroke-miterlimit="10"/><polygon fill="#fff" points="753.5 749.2 702.5 749.2 985.5 437.4 1036.5 437.4"/><polygon fill="#fff" points="1036.9 483.6 1036.9 495.7 806.5 749.6 795.5 749.6"/></g><g><polygon fill="#f7c4a1" points="546.6 800.4 553.7 813.9 547.7 813.5 541.1 807"/><path fill="#f4ba92" d="M538.4,566.2c-11.5,76.4-10.6,161.7-1.6,216.4c16,1.1,16,1.1,16,1.1s-1.6-144.5,20.5-215.1
				C537.4,566.1,538.4,566.2,538.4,566.2z"/><path fill="#f4ba92" d="M536.9,782.6c-9,13.4-10.1,15.3-10.1,15.3s4.3,24.4,7.1,26.6c7.8,3.6,23.2,11.7,23.2,11.7
				c-1.5-7.1-11-14.8-11-14.8c-4.5-7.3,1.2-17,3.3-17.8c2.1-0.9,3.4-19.8,3.4-19.8l-10.4-8.8L536.9,782.6z"/><path fill="#2fa2ea" d="M575.6,537.8c-2.3-23.2-18.4-36.4-32.8-32.4c-14.3,4-10.3,73.4-10.3,73.4l42.9,3.1L575.6,537.8z"/><polygon fill="#2fa2ea" points="496 550 500 571 511 583 514 551"/><polygon fill="#0b3c5e" points="476.6 908 402 941 504 941 504 904"/><path fill="#0c4b75" d="M608,629c0,0-97,82-114,122c-4,49-23,157-23,157h34c0,0,37-132,31-144c39-22,119-59,131-82
		s10.9-67.5,10.9-67.5L608,629z"/><polygon fill="#0b3c5e" points="720 876 712 948 758 867 730 853"/><path fill="#0e538c" d="M707,615c21,34-73,153-83,165c25,6,74,33,109,73c-9,14-15,27-15,27l-153.6-82.9c0,0,42.6-167.1,64.6-176.1
		S707,615,707,615z"/><path fill="#2a94f4" d="M494,519c16-19,195-79,226,126c-38,0-112-16-112-16c4-17-37-76-103-72C505,544,494,519,494,519z"/><path fill="#ffbe55" d="M505,580c-6,11-41,98-22,138c8,7,13,10,13,10l12-24c0,0-10-82,8-124C516,574,505,580,505,580z"/><path fill="#ffbe55" d="M500.5,554.3C503,568,505,580,505,580h11c0,0,4-11,1-20C509,553,500.5,554.3,500.5,554.3z"/><g><path fill="#fcd4b4" d="M460.9,528.7C476,525,494,524,494,524l11,33c0,0-26-12-37-7C460,545,460.9,528.7,460.9,528.7z"/><path fill="#0e538c" d="M467.7,533.2c-0.7-9.2-4.1-19.9-13.4-27.6c-0.6,9.7,2.7,20.3,2.7,20.3L467.7,533.2z"/><path fill="#ffe3ca" d="M437.9,509.8c40.1,18.2,35.8,38.6,28.3,60.2c-11.1,32-34.3,24.8-58.1,7c-23-17.2-45.3-32.5-35.1-53
				C383,503.4,411.7,497.9,437.9,509.8z"/><path fill="#0e538c" d="M411,497c-3,11-23,95-80,47c26-8,45-75,76-66C420,482,411,497,411,497z"/><path fill="#0e538c" d="M402,515c14,5,39,15,52,4s-15-53-34-42S399,503,402,515z"/><ellipse cx="456.2" cy="518.3" fill="#ffe3ca" rx="10.3" ry="13" transform="rotate(-22.236 456.177 518.302)"/></g><polygon fill="#5cb9ff" points="487 519 505 566 529 580 511 512"/><g><polygon fill="#f7c4a1" points="573 818 581 831 575 831 568 825"/><path fill="#fcd4b4" d="M548,585c-6,77,1,162,14,216c16,0,16,0,16,0s-12-144,5-216C547,585,548,585,548,585z"/><path fill="#fcd4b4" d="M562,801c-8,14-9,16-9,16s6,24,9,26c8,3,24,10,24,10c-2-7-12-14-12-14c-5-7,0-17,2-18s2-20,2-20l-11-8
				L562,801z"/><path fill="#5cb9ff" d="M583,554c-4-23-21-35-35-30s-5,74-5,74h43L583,554z"/></g></g><g><path fill="#1a87d8" d="M962.7,851.2c-8.2-38.5-33.7-72.9-68-92.1c18.4,34.7,40.3,67.4,65.5,97.6L962.7,851.2z"/><path fill="#2a94f4" d="M971.9,865.7c-32.7-45.7-49.1-102.9-45.6-159c21.2,51.8,37.2,105.7,47.7,160.6L971.9,865.7z"/><path fill="#1a87d8" d="M962.5,867.3c-1-28.1-2-56.5,2.4-84.3c4.4-27.8,14.6-55.3,33.5-76.2c2.9,57.6-11.1,115.9-39.6,166
					L962.5,867.3z"/><path fill="#b0e1ff" d="M963.9,869.8c-18.4-53.2-15.4-113.4,8.2-164.5c14.8,53.4,1.7,110-11.4,163.8L963.9,869.8z"/><path fill="#2a94f4" d="M966.3,850.1c5.1-46.7,36.2-89.6,79-108.9c-17.3,46.5-47,88.4-85.1,120.3L966.3,850.1z"/><path fill="#cce9ff" d="M1010.4,841.9l-5.3,90.6c0,4.4-3.6,7.9-7.9,7.9h-62.8c-4.4,0-7.9-3.6-7.9-7.9l-1.2-20.5l-4.1-70.1
			c0-4.4,3.6-7.9,7.9-7.9h73.4c2.9,0,5.4,1.5,6.8,3.8v0C1009.9,839,1010.4,840.4,1010.4,841.9z"/><g><path fill="#cce9ff" d="M1010.4,841.9l-5.3,90.6c0,4.4-3.6,7.9-7.9,7.9h-62.8c-4.4,0-7.9-3.6-7.9-7.9l-1.2-20.5
				c29.3-8.4,59.5-44.6,84-74.2C1009.9,839,1010.4,840.4,1010.4,841.9z"/></g><g><path fill="#1a87d8" d="M79.2,882c-5.4-25.2-22-47.7-44.5-60.3c12,22.7,26.4,44.1,42.9,63.9L79.2,882z"/><path fill="#2a94f4" d="M85.2,891.5c-21.4-29.9-32.1-67.3-29.9-104.1c13.9,33.9,24.4,69.2,31.2,105.2L85.2,891.5z"/><path fill="#1a87d8" d="M79.1,892.5c-0.7-18.4-1.3-37,1.6-55.2s9.6-36.2,22-49.9c1.9,37.7-7.2,75.9-26,108.7L79.1,892.5z"/><path fill="#b0e1ff" d="M80,894.2c-12.1-34.8-10.1-74.3,5.4-107.7c9.7,34.9,1.1,72-7.5,107.2L80,894.2z"/><path fill="#2a94f4" d="M81.6,881.3c3.3-30.5,23.7-58.7,51.7-71.3c-11.4,30.5-30.8,57.9-55.7,78.8L81.6,881.3z"/><path fill="#cce9ff" d="M110.4,875.9l-3.5,59.3c0,2.9-2.3,5.2-5.2,5.2H60.6c-2.9,0-5.2-2.3-5.2-5.2l-0.8-13.4L52,875.9
			c0-2.9,2.3-5.2,5.2-5.2h48.1c1.9,0,3.5,1,4.4,2.5v0C110.2,874,110.4,874.9,110.4,875.9z"/><g><path fill="#cce9ff" d="M110.4,875.9l-3.5,59.3c0,2.9-2.3,5.2-5.2,5.2H60.6c-2.9,0-5.2-2.3-5.2-5.2l-0.8-13.4
				c19.2-5.5,39-29.2,55-48.6C110.2,874,110.4,874.9,110.4,875.9z"/></g></g></g></svg>