<?xml version="1.0" encoding="iso-8859-1"?>
<!-- Generator: Adobe Illustrator 23.0.2, SVG Export Plug-In . SVG Version: 6.00 Build 0)  -->
<svg version="1.1" id="Layer_1" xmlns="http://www.w3.org/2000/svg" xmlns:xlink="http://www.w3.org/1999/xlink" x="0px" y="0px"
	 viewBox="0 0 700 550" style="enable-background:new 0 0 700 550;" xml:space="preserve">
<g>
	<g>
		<path style="fill:#EFEDEF;" d="M572.117,366.274c-24.925,96.766-100.54,93.888-224.561,93.888s-224.561,6.036-224.561-93.888
			s107.494-139.98,224.561-180.928C523.971,123.639,609.063,222.837,572.117,366.274z"/>
		<path style="fill:none;stroke:#EFEDEF;stroke-miterlimit:10;" d="M341.19,174.423c191.46-66.97,283.81,40.69,243.71,196.35
			c-13.82,53.66-42,79.08-84.21,91.11"/>
	</g>
	<path style="fill:#FFE3CB;" d="M436.56,302.874H204.785c-1.629,0-2.949-1.32-2.949-2.949v-193.83c0-1.629,1.32-2.949,2.949-2.949
		H436.56c1.629,0,2.949,1.32,2.949,2.949v193.83C439.509,301.554,438.189,302.874,436.56,302.874z"/>
	<g>
		<g>
			<g>
				<path style="fill:#904D24;" d="M341.173,139.053c-0.557,0-1.028-0.43-1.07-0.995c-0.044-0.591,0.401-1.106,0.992-1.149
					l19.69-1.448c0.595-0.05,1.106,0.401,1.149,0.992c0.044,0.591-0.401,1.106-0.992,1.149l-19.69,1.448
					C341.226,139.052,341.199,139.053,341.173,139.053z"/>
			</g>
			<g>
				<path style="fill:#904D24;" d="M360.865,144.568h-19.69c-0.593,0-1.074-0.481-1.074-1.074c0-0.593,0.481-1.074,1.074-1.074
					h19.69c0.593,0,1.074,0.481,1.074,1.074C361.938,144.088,361.458,144.568,360.865,144.568z"/>
			</g>
			<g>
				<path style="fill:#904D24;" d="M360.865,151.531h-19.69c-0.593,0-1.074-0.481-1.074-1.074c0-0.593,0.481-1.074,1.074-1.074
					h19.69c0.593,0,1.074,0.481,1.074,1.074C361.938,151.05,361.458,151.531,360.865,151.531z"/>
			</g>
			<g>
				<path style="fill:#904D24;" d="M360.865,156.21h-19.69c-0.593,0-1.074-0.481-1.074-1.074c0-0.593,0.481-1.074,1.074-1.074h19.69
					c0.593,0,1.074,0.481,1.074,1.074C361.938,155.729,361.458,156.21,360.865,156.21z"/>
			</g>
		</g>
		<g>
			<g>
				<path style="fill:#904D24;" d="M247.828,271.858c-0.593,0-1.074-0.481-1.074-1.074V136.532c0-0.593,0.481-1.074,1.074-1.074
					c0.593,0,1.074,0.481,1.074,1.074v134.252C248.902,271.377,248.421,271.858,247.828,271.858z"/>
			</g>
			<g>
				<path style="fill:#904D24;" d="M416.801,249.239H224.544c-0.593,0-1.074-0.481-1.074-1.074c0-0.593,0.481-1.074,1.074-1.074
					h192.257c0.593,0,1.074,0.481,1.074,1.074C417.875,248.758,417.394,249.239,416.801,249.239z"/>
			</g>
			<g>
				<path style="fill:#904D24;" d="M257.806,236.183c-0.204,0-0.411-0.058-0.593-0.179c-0.494-0.328-0.629-0.995-0.3-1.489
					l19.292-29.041c0.214-0.321,0.591-0.498,0.968-0.477c0.385,0.027,0.727,0.258,0.894,0.606l9.695,20.166l26.295-52.551
					c0.199-0.399,0.62-0.64,1.066-0.588c0.443,0.044,0.813,0.356,0.93,0.784l9.29,33.876l8.031-14.198
					c0.201-0.355,0.584-0.568,0.992-0.544c0.407,0.021,0.767,0.271,0.929,0.645l10.891,25.104l7.735-21.717
					c0.138-0.389,0.487-0.663,0.896-0.707c0.418-0.048,0.809,0.15,1.027,0.5l7.636,12.261l27.082-53.98
					c0.192-0.383,0.58-0.613,1.02-0.591c0.427,0.024,0.8,0.3,0.947,0.702l5.16,14.026l18.165-34.06
					c0.279-0.523,0.928-0.721,1.453-0.442c0.523,0.279,0.721,0.93,0.442,1.453l-19.292,36.174c-0.199,0.373-0.595,0.598-1.021,0.566
					c-0.422-0.029-0.788-0.303-0.934-0.701l-5.131-13.949l-26.828,53.475c-0.175,0.348-0.523,0.574-0.911,0.591
					c-0.381,0.009-0.755-0.176-0.961-0.505l-7.472-11.998l-7.902,22.185c-0.148,0.415-0.535,0.698-0.975,0.713
					c-0.432,0.019-0.845-0.241-1.021-0.646l-11.116-25.623l-8.252,14.587c-0.215,0.379-0.641,0.594-1.067,0.537
					c-0.432-0.053-0.789-0.362-0.903-0.781l-9.237-33.683l-26.02,52.002c-0.184,0.366-0.57,0.568-0.969,0.594
					c-0.41-0.003-0.782-0.239-0.96-0.609l-9.826-20.438l-18.248,27.468C258.495,236.015,258.153,236.183,257.806,236.183z"/>
			</g>
			<g>
				<path style="fill:#904D24;" d="M229.201,220.18c-0.593,0-1.074-0.481-1.074-1.074v-63.97c0-0.593,0.481-1.074,1.074-1.074
					c0.593,0,1.074,0.481,1.074,1.074v63.97C230.275,219.699,229.794,220.18,229.201,220.18z"/>
			</g>
			<g>
				<path style="fill:#904D24;" d="M374.891,266.038c-0.005,0-0.01,0-0.016,0l-100.452-1.415c-0.593-0.008-1.067-0.496-1.059-1.089
					c0.008-0.593,0.49-1.037,1.089-1.059l100.452,1.415c0.593,0.008,1.067,0.496,1.059,1.089
					C375.956,265.567,375.477,266.038,374.891,266.038z"/>
			</g>
		</g>
	</g>
	<g>
		<circle style="fill:#FFBA55;" cx="154.078" cy="170.508" r="28.034"/>
		<circle style="fill:none;stroke:#D77F4A;stroke-miterlimit:10;" cx="154.078" cy="170.508" r="28.034"/>
		<path style="fill:#9857BD;" d="M164.398,170.508"/>
		
			<line style="fill:none;stroke:#D77F4A;stroke-linecap:round;stroke-linejoin:round;stroke-miterlimit:10;" x1="154.078" y1="154.43" x2="154.078" y2="172.508"/>
		
			<line style="fill:none;stroke:#D77F4A;stroke-linecap:round;stroke-linejoin:round;stroke-miterlimit:10;" x1="150.875" y1="166.841" x2="169.632" y2="176.248"/>
	</g>
	<g>
		<path style="fill:#7CA1B1;" d="M556.836,161.805H505.55c-0.974,0-1.764-0.79-1.764-1.764v-49.932c0-0.974,0.79-1.764,1.764-1.764
			h51.286c0.974,0,1.764,0.79,1.764,1.764v49.932C558.6,161.015,557.81,161.805,556.836,161.805z"/>
		<path style="fill:#FFBA55;" d="M554.87,159.887h-47.354c-0.974,0-1.764-0.79-1.764-1.764v-46.098c0-0.974,0.79-1.764,1.764-1.764
			h47.354c0.974,0,1.764,0.79,1.764,1.764v46.098C556.634,159.097,555.844,159.887,554.87,159.887z"/>
		<path style="fill:#F65B2B;" d="M529.952,154.586c-0.788,0.018-2.228-0.278-8.571-10.828c-4.975-8.274-5.65-10.688-5.864-13.083
			c-0.182-2.027-0.652-7.287,2.481-9.248c1.761-1.102,4.423-1.015,6.09,0.225c0.742,0.552,1.256,1.309,2.255,4.511
			c1.672,5.358,1.65,7.781,2.481,7.895c0.843,0.116,1.31-2.316,4.061-6.316c1.552-2.257,2.588-3.727,4.512-4.737
			c0.214-0.112,3.856-1.975,5.864-0.677c2.216,1.432,2.357,6.656-0.677,12.632c-1.086,2.62-2.692,6.148-4.962,10.151
			C534.059,151.393,532.231,154.533,529.952,154.586z"/>
	</g>
	<g>
		<path style="fill:#F9977A;" d="M474.03,439.167c0,0,4.732,17.565,3.448,18.207c-1.284,0.642-35.751,5.036-29.93,1.605l9.71-5.057
			c3.468-1.806,5.559-5.475,5.345-9.38l-0.311-5.677L474.03,439.167z"/>
		<path style="fill:#F9977A;" d="M421.874,439.167c0,0,4.732,17.565,3.448,18.207c-1.284,0.642-35.751,5.036-29.93,1.605l9.71-5.057
			c3.468-1.806,5.559-5.475,5.345-9.38l-0.311-5.677L421.874,439.167z"/>
		<path style="fill:#FFBA55;" d="M463.723,259.855c0,0,3.579,28.231,1.907,100.608l11.396,74.352
			c0.237,2.431-1.526,4.599-3.954,4.864l-10.928,1.191c-2.119,0.231-4.105-1.071-4.739-3.106l-21.687-69.616l-9.586,69.809
			c-0.303,2.207-2.189,3.851-4.416,3.851H410.52c-2.381,0-4.341-1.868-4.453-4.246c-1.109-23.691-5.671-139.868,9.431-178.702
			L463.723,259.855z"/>
		<g>
			<g>
				<path style="fill:#E6952A;" d="M435.718,368.147c-1.192-7.138-2.257-14.294-3.29-21.454c-1.037-7.16-1.967-14.335-2.918-21.507
					c-0.88-7.181-1.757-14.364-2.507-21.561c-0.368-3.6-0.71-7.203-1.019-10.808c-0.208-3.609-0.635-7.227-0.376-10.847
					c-0.038,3.617,0.482,7.209,0.85,10.802c0.405,3.593,0.829,7.183,1.287,10.77l2.727,21.524l2.693,21.531
					C434.044,353.774,434.923,360.955,435.718,368.147z"/>
			</g>
			<g>
				<path style="fill:#E6952A;" d="M408.026,350.334c1.136,1.466,1.989,3.16,2.57,4.944c0.586,1.785,0.856,3.689,0.768,5.589
					c-0.026,0.954-0.231,1.888-0.429,2.818c-0.329,0.892-0.567,1.824-1.078,2.631c-0.243,0.406-0.417,0.851-0.717,1.219
					l-0.862,1.116c-0.272,0.382-0.642,0.68-0.975,1.004c-0.336,0.322-0.68,0.634-1.026,0.937c1.125-1.473,2.226-2.931,2.897-4.606
					c0.408-0.801,0.608-1.68,0.869-2.527c0.156-0.878,0.344-1.748,0.351-2.643c0.101-1.778-0.109-3.574-0.526-5.332
					C409.43,353.732,408.84,351.994,408.026,350.334z"/>
			</g>
			<g>
				<path style="fill:#E6952A;" d="M460.38,301.264c0.283,1.992,0.334,4.018,0.203,6.034c-0.122,2.017-0.443,4.029-0.982,5.993
					c-0.563,1.952-1.332,3.88-2.512,5.568c-1.139,1.704-2.749,3.118-4.601,3.91c1.669-1.13,2.979-2.633,3.962-4.318
					c0.993-1.681,1.688-3.531,2.216-5.421c0.539-1.892,0.892-3.841,1.165-5.806C460.086,305.255,460.288,303.27,460.38,301.264z"/>
			</g>
			<g>
				<path style="fill:#E6952A;" d="M462.66,314.102c0.22,1.96-0.068,3.977-0.688,5.871c-0.612,1.902-1.573,3.693-2.779,5.294
					c-1.262,1.552-2.684,2.987-4.339,4.099c-0.784,0.614-1.696,1.035-2.539,1.543c-0.896,0.419-1.805,0.807-2.715,1.167
					c0.816-0.558,1.672-1.026,2.473-1.576l1.178-0.855c0.396-0.278,0.792-0.553,1.146-0.883l1.103-0.93
					c0.363-0.313,0.683-0.675,1.025-1.008c0.71-0.646,1.283-1.418,1.898-2.146c1.164-1.515,2.109-3.189,2.84-4.961
					C461.974,317.939,462.502,316.06,462.66,314.102z"/>
			</g>
			<g>
				<path style="fill:#E6952A;" d="M448.222,277.535c0.516,1.409,1.016,2.823,1.457,4.253c0.452,1.427,0.911,2.852,1.321,4.29
					l-0.231-0.282c2.482,1.187,4.945,2.413,7.375,3.704c1.223,0.63,2.414,1.323,3.623,1.982c1.205,0.666,2.391,1.37,3.566,2.095
					c-1.285-0.505-2.56-1.031-3.816-1.596c-1.252-0.572-2.522-1.109-3.759-1.709c-2.491-1.17-4.949-2.404-7.388-3.678l-0.183-0.096
					l-0.048-0.187c-0.373-1.448-0.696-2.91-1.027-4.37C448.771,280.485,448.488,279.012,448.222,277.535z"/>
			</g>
			<g>
				<path style="fill:#E6952A;" d="M412.689,270.725c2.021,0.771,4.053,1.497,6.126,2.098c2.056,0.647,4.138,1.208,6.231,1.71
					c4.188,0.996,8.427,1.762,12.705,2.156c4.27,0.518,8.58,0.441,12.859,0.152l3.206-0.328c1.066-0.135,2.113-0.384,3.174-0.566
					l1.592-0.28c0.525-0.116,1.039-0.278,1.561-0.414l3.131-0.84c-4.032,1.55-8.255,2.725-12.59,3.172
					c-1.074,0.198-2.165,0.195-3.25,0.268c-1.086,0.052-2.173,0.145-3.261,0.097l-3.263-0.05l-3.253-0.246
					c-4.321-0.479-8.612-1.241-12.797-2.401C420.684,274.082,416.571,272.644,412.689,270.725z"/>
			</g>
			<g>
				<path style="fill:#E6952A;" d="M419.053,274.743c-0.391-0.652-0.537-1.425-0.557-2.183c-0.025-0.764,0.115-1.526,0.336-2.254
					c0.258-0.717,0.587-1.407,1.037-2.014c0.434-0.614,0.969-1.15,1.579-1.585c-0.3,0.694-0.636,1.322-0.925,1.967
					c-0.291,0.642-0.551,1.283-0.77,1.936C419.331,271.922,419.064,273.257,419.053,274.743z"/>
			</g>
			<g>
				<path style="fill:#E6952A;" d="M453.459,278.838c-0.211-1.917-0.391-3.761-0.785-5.558c-0.196-0.896-0.457-1.769-0.778-2.626
					c-0.352-0.844-0.785-1.646-1.326-2.457c0.821,0.516,1.497,1.274,2.006,2.123c0.494,0.859,0.821,1.799,1.046,2.753
					c0.2,0.96,0.292,1.934,0.268,2.904C453.866,276.943,453.754,277.912,453.459,278.838z"/>
			</g>
		</g>
		<path style="fill:#6C7FD8;" d="M450.201,178.557l-18.203,1.018c0,0-24.321,1.817-24.288,22.814l-2.078,19.974
			c0,0-2.644,3.97-4.051,9.143c-2.38,8.751,0.618,16.81,9.463,18.81l-0.765,13.406c-0.164,2.882,1.753,5.466,4.558,6.149
			c8.794,2.143,27.298,6.149,36.04,4.312l14.019-3.462l-0.081-26.566c0,0,25.765,7.465,23.332-7.464
			c-1.961-12.03-8.063-34.502-16.004-47.594c-2.819-4.647-7.523-7.832-12.865-8.836L450.201,178.557z"/>
		<path style="fill:#F9977A;" d="M450.877,227.365c0,0-9.938-10.163-20.426-5.985l16.721,15.703L450.877,227.365z"/>
		<g>
			<path style="fill:#065082;" d="M418.331,208.643c0.222,2.403,0.42,4.808,0.587,7.214l0.459,7.221l0.35,7.227
				c0.103,2.41,0.174,4.822,0.221,7.234c-0.223-2.403-0.421-4.808-0.587-7.214l-0.459-7.221l-0.349-7.227
				C418.45,213.468,418.379,211.056,418.331,208.643z"/>
		</g>
		<g>
			<path style="fill:#065082;" d="M481.266,227.947c-5.066-0.017-10.133-0.048-15.198-0.116l-15.196-0.233l0.222-0.15l-4.2,10.954
				l-0.133-0.277l10.554,3.468l10.532,3.539l-10.619-3.267l-10.597-3.337l-0.213-0.067l0.08-0.21l4.16-10.969l0.058-0.154
				l0.164,0.004l15.194,0.349C471.139,227.607,476.203,227.77,481.266,227.947z"/>
		</g>
		<g>
			<path style="fill:#065082;" d="M463.611,206.11c0.397,3.576,0.611,7.162,0.84,10.748c0.173,3.589,0.362,7.176,0.364,10.774
				c-0.399-3.576-0.611-7.162-0.84-10.748C463.802,213.296,463.615,209.708,463.611,206.11z"/>
		</g>
		<g>
			<path style="fill:#065082;" d="M424.704,245.035c-0.378,1.105-0.972,2.131-1.674,3.074c-0.709,0.941-1.584,1.763-2.577,2.42
				c-1.002,0.647-2.179,1.027-3.358,1.128c-1.192,0.143-2.368-0.155-3.461-0.524c1.148,0.179,2.295,0.372,3.42,0.16
				c1.112-0.171,2.211-0.52,3.146-1.166c0.964-0.592,1.799-1.382,2.547-2.246C423.487,247.009,424.147,246.055,424.704,245.035z"/>
		</g>
		<g>
			<path style="fill:#065082;" d="M416.042,233.692c-1.88-1.755-3.625-3.634-5.381-5.503c-1.715-1.907-3.441-3.803-5.03-5.825
				c1.881,1.754,3.625,3.634,5.381,5.503C412.727,229.774,414.452,231.67,416.042,233.692z"/>
		</g>
		<polygon style="fill:#025182;" points="406.782,220.473 433.43,221.493 453.658,244.442 424.576,242.759 		"/>
		<path style="fill:#F9977A;" d="M419.799,245.574c2.681,0.13,7.766-0.012,11.87-2.405l1.102-0.81
			c0.716-0.526,1.531-0.892,2.4-1.077c2.184-0.463,6.495-1.418,8.056-2.05c0.39-0.158,0.637-0.542,0.613-0.962l0,0
			c-0.298-0.574-1.059-0.928-1.69-0.786l-7.165,1.61l4.94-3.611c0.675-0.493,0.724-1.483,0.101-2.04l-0.023-0.02
			c-0.418-0.374-1.01-0.453-1.504-0.203c-2.695,1.367-11.153,5.471-10.532,2.843l4.194-4.244c0.217-0.22,0.327-0.524,0.301-0.832
			l0,0c-0.06-0.697-0.77-1.143-1.424-0.895l-0.681,0.258c-0.092,0.035-0.179,0.082-0.258,0.141l-4.86,3.631
			c-0.423,0.316-0.925,0.514-1.452,0.551c-1.049,0.073-2.803-0.084-4.091-1.627c-1.175-1.407-2.084-2.48-2.623-3.112
			c-0.298-0.35-0.831-0.368-1.154-0.042l0,0c-0.167,0.168-0.249,0.403-0.223,0.639l0.89,8.11c0,0-0.616,2.063-0.214,4.07
			C416.697,244.335,418.145,245.494,419.799,245.574z"/>
		<path style="fill:#F9977A;" d="M436.78,140.559c-2.17-0.106-5.133-0.217-8.561,1.219c-1.272,0.533-5.924,2.481-7.986,7.104
			c-0.783,1.756-0.867,3.82-1.035,7.948c-0.105,2.578-0.99,4.47-0.813,7.598c0.099,1.756,0.536,4.348,1.652,7.395
			c1.362,3.717,0.741,5.906,1.354,6.581c2.471,2.719,9.363,0.092,9.676,3.803c0.193,2.292-1.535,2.817-1.236,5.495
			c0.387,3.471,11.489,0.949,14.708-0.977c0.439-0.263,4.4-3.184,3.725-7.219c-0.361-2.155-2.771-12.228-2.668-13.551
			c0.374-4.781,2.733-5.494,4.297-11.335c0.969-3.619-0.21-6.583-1.956-8.52C444.678,142.482,439.496,140.692,436.78,140.559z"/>
		
			<ellipse transform="matrix(0.9984 -0.0559 0.0559 0.9984 -8.3251 23.733)" style="fill:#0A0709;" cx="420.411" cy="160.799" rx="0.965" ry="1.2"/>
		
			<ellipse transform="matrix(0.9984 -0.0559 0.0559 0.9984 -8.2844 24.2175)" style="fill:#0A0709;" cx="429.099" cy="160.313" rx="0.965" ry="1.2"/>
		
			<path style="fill:none;stroke:#1E1D22;stroke-width:1.2182;stroke-linecap:round;stroke-linejoin:round;stroke-miterlimit:10;" d="
			M418.327,158.153c0,0,2.884-2.442,6.513-0.364"/>
		
			<path style="fill:none;stroke:#1E1D22;stroke-width:1.2182;stroke-linecap:round;stroke-linejoin:round;stroke-miterlimit:10;" d="
			M427.331,157.649c0,0,2.884-2.442,6.513-0.364"/>
		<g>
			<path style="fill:#DD765E;" d="M425.715,158.598c0.306,0.969,0.284,2.063-0.073,3.041c-0.344,0.952-0.717,1.927-1.331,2.777
				c-0.292,0.432-0.735,0.768-0.68,1.173c0.018,0.426,0.358,0.824,0.712,1.123c0.759,0.587,1.854,0.614,2.836,0.464
				c-0.948,0.306-2.09,0.403-3.021-0.212c-0.433-0.305-0.832-0.744-0.896-1.35c-0.04-0.296,0.104-0.628,0.266-0.829l0.454-0.607
				c0.607-0.781,0.964-1.725,1.368-2.649C425.748,160.623,425.855,159.604,425.715,158.598z"/>
		</g>
		<g>
			<g>
				<path style="fill:#DD765E;" d="M441.526,158.121c0.735-0.144,1.471,0.239,2.023,0.701c0.271,0.251,0.506,0.533,0.704,0.836
					c0.19,0.309,0.345,0.636,0.444,0.984c-0.482-0.537-0.896-1.083-1.416-1.516c-0.242-0.235-0.518-0.427-0.806-0.601
					C442.184,158.355,441.874,158.21,441.526,158.121z"/>
			</g>
			<g>
				<path style="fill:#DD765E;" d="M442.588,163.073c-0.856-1.317-0.641-3.277,0.485-4.375c-0.133,0.369-0.286,0.71-0.376,1.071
					c-0.105,0.354-0.184,0.713-0.208,1.078C442.386,161.575,442.464,162.31,442.588,163.073z"/>
			</g>
		</g>
		<path style="fill:#1E1D22;" d="M428.347,181.778c0,0,6.81-0.255,10.396-5.879c1.71-2.682,1.423-7.897,1.072-10.921
			c-0.158-1.356-0.023-2.728,0.404-4.025c0.59-1.792,1.3-4.228,3.006-4.483c1.257-0.188,1.746-0.55,2.269,0.644
			c0.865,1.975-0.317,4.274-1.14,5.875c-1.178,2.291-2.257,2.837-2.191,4.373c0.05,1.171,3.525,3.36,4.133,2.868
			c1.239-1.004,0.376-3.758,3.527-10.601c1.99-4.321,2.969-5.166,3.08-7.8c0.039-0.935,0.202-4.808-2.241-6.918
			c-1.133-0.979-1.727-0.628-6.513-2.346c-1.801-0.647-2.702-0.97-3.9-1.54c-3.838-1.826-3.813-2.877-6.027-3.374
			c-2-0.449-2.069,0.398-5.841,0.385c-3.636-0.012-4.003-0.801-5.651-0.229c-2.862,0.992-4.086,4.177-4.414,5.033
			c-0.37,0.965-1.096,2.802-0.861,4.741c0.18,1.481,1.185,3.692,2.022,4.454c0.499,0.455,2.26-2.427,3.246-3.529
			c0.967-1.08,2.153-0.726,3.743-0.716c1.551,0.01,1.52,0.977,3.853,1.694c0.831,0.255,4.013-1.389,5.167,0.358
			c1.23,1.862,2.116,2.046,1.689,3.866c-0.267,1.137,0.014,2.5,0.575,5.226c0.403,1.956-0.808,8.936-0.808,8.936
			c-0.523,1.241-1.96,1.807-3.184,1.275c-1.495-0.657-3.53-1.468-5.479-2.013c-2.257-0.64-4.676-0.209-6.604,1.132
			c-0.66,0.456-1.335,0.962-1.867,1.415c-0.724,0.618-1.076,1.533-0.975,2.476C419.202,175.1,420.834,182.265,428.347,181.778z
			 M421.308,171.865c0.201-1.424,2.272-2.09,3.454-2.468c0.855-0.269,1.806-0.579,2.944-0.27c0.235,0.058,2.363,0.659,2.646,2.331
			c0.284,1.672-1.527,2.951-1.812,3.143c-1.377,0.964-3.206,1.072-4.67,0.41C422.763,174.515,421.11,173.234,421.308,171.865z"/>
		<path style="fill:#0A0709;" d="M429.417,171.3c0,0-3.597,3.752-7.188,0.402"/>
		<path style="fill:#6C7FD8;" d="M389.612,461.874c-2.005-3.211-0.56-7.141,3.265-8.93l16.088-7.522
			c0.595-0.243,1.318-0.102,1.716,0.334l5.733,6.276c0.421,0.461,1.201,0.588,1.805,0.294l6.762-3.29
			c0.917-0.446,2.081,0.097,2.078,0.97l-0.033,10.687c-0.002,0.62-0.619,1.121-1.378,1.119l-36.031,0.072
			C389.618,461.884,389.616,461.88,389.612,461.874z"/>
		<path style="fill:#6C7FD8;" d="M441.702,461.874c-2.005-3.211-0.56-7.141,3.265-8.93l16.088-7.522
			c0.595-0.243,1.318-0.102,1.716,0.334l5.733,6.276c0.421,0.461,1.201,0.588,1.805,0.294l6.762-3.29
			c0.917-0.446,2.081,0.097,2.078,0.97l-0.033,10.687c-0.002,0.62-0.619,1.121-1.378,1.119l-36.031,0.072
			C441.709,461.884,441.707,461.88,441.702,461.874z"/>
	</g>
	<g>
		<g>
			<path style="fill:#935B50;" d="M520.464,444.559c0,0.103,1.076-0.15,1.063-0.034c0,0-10.588,17.359-11.75,17.359
				c-0.116,0-0.219-0.013-0.335-0.026c-1.291-0.181-2.194-1.381-2.013-2.672l8.26-14.661L520.464,444.559z"/>
		</g>
		<g>
			<path style="fill:#935B50;" d="M574.469,444.559c0,0.103-1.076-0.15-1.063-0.034c0,0,10.588,17.359,11.75,17.359
				c0.116,0,0.219-0.013,0.335-0.026c1.291-0.181,2.194-1.381,2.013-2.672l-8.26-14.661L574.469,444.559z"/>
		</g>
		<path style="fill:#D6694B;" d="M591.003,405.541H503.59v-37.075c0-1.426,1.156-2.581,2.581-2.581h82.251
			c1.426,0,2.581,1.156,2.581,2.581V405.541z"/>
		<path style="fill:#D6694B;" d="M515.689,445.196h-9.512c-1.426,0-2.581-1.156-2.581-2.581v-37.079h87.412v37.079
			c0,1.426-1.156,2.581-2.581,2.581h-6.556"/>
		<path style="fill:#E19974;" d="M584.62,401.457h-74.648c-1.426,0-2.581-1.156-2.581-2.581v-26.325
			c0-1.426,1.156-2.581,2.581-2.581h74.648c1.426,0,2.581,1.156,2.581,2.581v26.325C587.201,400.301,586.046,401.457,584.62,401.457
			z"/>
		<ellipse style="fill:#935B50;" cx="547.296" cy="385.713" rx="4.395" ry="4.351"/>
		<g>
			<path style="fill:#FFBA55;" d="M550.266,388.053c0,0,19.246,17.87,25.176,17.212c0,0-26.918,17.275-32.13,32.877l-19.748-21.735
				C523.564,416.408,541.99,400.87,550.266,388.053z"/>
			<path style="fill:#F65B2B;" d="M542.955,386.592c0,0,19.246,17.87,25.176,17.212c0,0-26.918,17.275-32.13,32.877l-19.748-21.735
				C516.253,414.947,534.679,399.409,542.955,386.592z"/>
			<path style="fill:#FFFFFF;" d="M543.477,390.943c0,0,19.246,17.87,25.176,17.212c0,0-26.918,17.275-32.13,32.877l-19.748-21.735
				C516.775,419.297,535.201,403.759,543.477,390.943z"/>
		</g>
		<path style="fill:#E19974;" d="M584.62,441.113h-74.648c-1.426,0-2.581-1.156-2.581-2.581v-26.325
			c0-1.426,1.156-2.581,2.581-2.581h74.648c1.426,0,2.581,1.156,2.581,2.581v26.325C587.201,439.957,586.046,441.113,584.62,441.113
			z"/>
		<ellipse style="fill:#935B50;" cx="547.296" cy="425.369" rx="4.395" ry="4.351"/>
	</g>
	<g>
		<path style="fill:#935B50;" d="M120,222.949v237.935h53.792V222.949c0-1.426-1.156-2.581-2.581-2.581h-48.63
			C121.156,220.367,120,221.523,120,222.949z"/>
		<path style="fill:#E19974;" d="M168.243,299.197H125.55c-1.426,0-2.581-1.156-2.581-2.581v-30.381
			c0-1.426,1.156-2.581,2.581-2.581h42.693c1.426,0,2.581,1.156,2.581,2.581v30.381
			C170.824,298.042,169.668,299.197,168.243,299.197z"/>
		<path style="fill:#E19974;" d="M168.243,259.782H125.55c-1.426,0-2.581-1.156-2.581-2.581V226.82c0-1.426,1.156-2.581,2.581-2.581
			h42.693c1.426,0,2.581,1.156,2.581,2.581v30.381C170.824,258.627,169.668,259.782,168.243,259.782z"/>
		<g>
			<g>
				<path style="fill:#D6694B;" d="M167.784,255.271c0.815,0.614,0.644,1.714,0.047,2.3c-0.584,0.599-1.686,0.773-2.3-0.047
					c0.291-0.421,0.441-0.679,0.561-0.898c0.12-0.209,0.207-0.354,0.325-0.469C166.659,255.912,166.973,255.839,167.784,255.271z"/>
			</g>
			<g>
				<path style="fill:#D6694B;" d="M165.531,226.497c0.614-0.815,1.714-0.644,2.3-0.047c0.599,0.584,0.773,1.686-0.047,2.3
					c-0.421-0.291-0.679-0.441-0.898-0.561c-0.209-0.12-0.354-0.206-0.469-0.325C166.171,227.622,166.099,227.308,165.531,226.497z"
					/>
			</g>
			<g>
				<path style="fill:#D6694B;" d="M126.008,228.75c-0.815-0.614-0.644-1.714-0.047-2.3c0.584-0.599,1.686-0.773,2.3,0.047
					c-0.291,0.421-0.441,0.679-0.561,0.898c-0.12,0.209-0.206,0.354-0.325,0.469C127.133,228.11,126.819,228.182,126.008,228.75z"/>
			</g>
			<g>
				<path style="fill:#D6694B;" d="M128.262,257.525c-0.614,0.815-1.714,0.644-2.3,0.047c-0.599-0.584-0.773-1.686,0.047-2.3
					c0.421,0.291,0.679,0.441,0.898,0.561c0.209,0.12,0.354,0.206,0.469,0.325C127.621,256.4,127.694,256.714,128.262,257.525z"/>
			</g>
		</g>
		<g>
			<g>
				<path style="fill:#D6694B;" d="M167.784,294.686c0.815,0.614,0.644,1.714,0.047,2.3c-0.584,0.599-1.686,0.773-2.3-0.047
					c0.291-0.421,0.441-0.679,0.561-0.898c0.12-0.209,0.207-0.354,0.325-0.469C166.659,295.327,166.973,295.254,167.784,294.686z"/>
			</g>
			<g>
				<path style="fill:#D6694B;" d="M165.531,265.912c0.614-0.815,1.714-0.644,2.3-0.047c0.599,0.584,0.773,1.686-0.047,2.3
					c-0.421-0.291-0.679-0.441-0.898-0.561c-0.209-0.12-0.354-0.207-0.469-0.325C166.171,267.037,166.099,266.723,165.531,265.912z"
					/>
			</g>
			<g>
				<path style="fill:#D6694B;" d="M126.008,268.165c-0.815-0.614-0.644-1.714-0.047-2.3c0.584-0.599,1.686-0.773,2.3,0.047
					c-0.291,0.421-0.441,0.679-0.561,0.898c-0.12,0.209-0.206,0.354-0.325,0.469C127.133,267.525,126.819,267.597,126.008,268.165z"
					/>
			</g>
			<g>
				<path style="fill:#D6694B;" d="M128.262,296.94c-0.614,0.815-1.714,0.644-2.3,0.047c-0.599-0.584-0.773-1.686,0.047-2.3
					c0.421,0.291,0.679,0.441,0.898,0.561c0.209,0.12,0.354,0.207,0.469,0.325C127.621,295.815,127.694,296.128,128.262,296.94z"/>
			</g>
		</g>
		<path style="fill:#E19974;" d="M168.243,378.027H125.55c-1.426,0-2.581-1.156-2.581-2.581v-30.381
			c0-1.426,1.156-2.581,2.581-2.581h42.693c1.426,0,2.581,1.156,2.581,2.581v30.381
			C170.824,376.871,169.668,378.027,168.243,378.027z"/>
		<path style="fill:#E19974;" d="M168.243,417.442H125.55c-1.426,0-2.581-1.156-2.581-2.581V384.48c0-1.426,1.156-2.581,2.581-2.581
			h42.693c1.426,0,2.581,1.156,2.581,2.581v30.381C170.824,416.286,169.668,417.442,168.243,417.442z"/>
		<g>
			<path style="fill:#D6694B;" d="M153.253,242.592H140.54c-0.552,0-1-0.448-1-1v-3.421c0-0.552,0.448-1,1-1h12.713
				c0.552,0,1,0.448,1,1v3.421C154.253,242.144,153.805,242.592,153.253,242.592z"/>
		</g>
		<g>
			<path style="fill:#D6694B;" d="M153.253,360.836H140.54c-0.552,0-1-0.448-1-1v-3.421c0-0.552,0.448-1,1-1h12.713
				c0.552,0,1,0.448,1,1v3.421C154.253,360.388,153.805,360.836,153.253,360.836z"/>
		</g>
		<g>
			<path style="fill:#D6694B;" d="M153.253,400.251H140.54c-0.552,0-1-0.448-1-1v-3.421c0-0.552,0.448-1,1-1h12.713
				c0.552,0,1,0.448,1,1v3.421C154.253,399.803,153.805,400.251,153.253,400.251z"/>
		</g>
		<g>
			<path style="fill:#D6694B;" d="M153.253,282.006H140.54c-0.552,0-1-0.448-1-1v-3.421c0-0.552,0.448-1,1-1h12.713
				c0.552,0,1,0.448,1,1v3.421C154.253,281.559,153.805,282.006,153.253,282.006z"/>
		</g>
		<g>
			<g>
				<path style="fill:#D6694B;" d="M167.784,373.516c0.815,0.614,0.644,1.714,0.047,2.3c-0.584,0.599-1.686,0.773-2.3-0.047
					c0.291-0.421,0.441-0.679,0.561-0.898c0.12-0.209,0.207-0.354,0.325-0.469C166.659,374.156,166.973,374.084,167.784,373.516z"/>
			</g>
			<g>
				<path style="fill:#D6694B;" d="M165.531,344.742c0.614-0.815,1.714-0.644,2.3-0.047c0.599,0.584,0.773,1.686-0.047,2.3
					c-0.421-0.291-0.679-0.441-0.898-0.561c-0.209-0.12-0.354-0.206-0.469-0.325C166.171,345.866,166.099,345.553,165.531,344.742z"
					/>
			</g>
			<g>
				<path style="fill:#D6694B;" d="M126.008,346.995c-0.815-0.614-0.644-1.714-0.047-2.3c0.584-0.599,1.686-0.773,2.3,0.047
					c-0.291,0.421-0.441,0.679-0.561,0.898c-0.12,0.209-0.206,0.354-0.325,0.469C127.133,346.355,126.819,346.427,126.008,346.995z"
					/>
			</g>
			<g>
				<path style="fill:#D6694B;" d="M128.262,375.769c-0.614,0.815-1.714,0.644-2.3,0.047c-0.599-0.584-0.773-1.686,0.047-2.3
					c0.421,0.291,0.679,0.441,0.898,0.561c0.209,0.12,0.354,0.206,0.469,0.325C127.621,374.644,127.694,374.958,128.262,375.769z"/>
			</g>
		</g>
		<g>
			<g>
				<path style="fill:#D6694B;" d="M167.784,412.931c0.815,0.614,0.644,1.714,0.047,2.3c-0.584,0.599-1.686,0.773-2.3-0.047
					c0.291-0.421,0.441-0.679,0.561-0.898c0.12-0.209,0.207-0.354,0.325-0.469C166.659,413.571,166.973,413.499,167.784,412.931z"/>
			</g>
			<g>
				<path style="fill:#D6694B;" d="M165.531,384.156c0.614-0.815,1.714-0.644,2.3-0.047c0.599,0.584,0.773,1.686-0.047,2.3
					c-0.421-0.291-0.679-0.441-0.898-0.561c-0.209-0.12-0.354-0.207-0.469-0.325C166.171,385.281,166.099,384.967,165.531,384.156z"
					/>
			</g>
			<g>
				<path style="fill:#D6694B;" d="M126.008,386.41c-0.815-0.614-0.644-1.714-0.047-2.3c0.584-0.599,1.686-0.773,2.3,0.047
					c-0.291,0.421-0.441,0.679-0.561,0.898c-0.12,0.209-0.206,0.354-0.325,0.469C127.133,385.769,126.819,385.842,126.008,386.41z"
					/>
			</g>
			<g>
				<path style="fill:#D6694B;" d="M128.262,415.184c-0.614,0.815-1.714,0.644-2.3,0.047c-0.599-0.584-0.773-1.686,0.047-2.3
					c0.421,0.291,0.679,0.441,0.898,0.561c0.209,0.12,0.354,0.207,0.469,0.325C127.621,414.059,127.694,414.373,128.262,415.184z"/>
			</g>
		</g>
		<g>
			<path style="fill:#7CA1B1;" d="M135.606,404.164c0,0,26.257,0.533,30.246-3.904c0,0-8.598,30.807-2.107,45.922l-29.204-3.084
				C134.541,443.098,137.957,419.239,135.606,404.164z"/>
			<path style="fill:#F65B2B;" d="M129.177,407.938c0,0,26.257,0.533,30.246-3.904c0,0-8.598,30.807-2.107,45.922l-29.204-3.084
				C128.112,446.872,131.527,423.013,129.177,407.938z"/>
			<path style="fill:#FFFFFF;" d="M132.462,410.838c0,0,26.257,0.533,30.246-3.904c0,0-8.598,30.807-2.107,45.922l-29.204-3.084
				C131.396,449.772,134.812,425.913,132.462,410.838z"/>
		</g>
		<g>
			<path style="fill:#FFBA55;" d="M135.676,287.766c0,0,26.257,0.533,30.246-3.904c0,0-8.598,30.807-2.107,45.922l-29.204-3.084
				C134.611,326.699,138.026,302.84,135.676,287.766z"/>
			<path style="fill:#F65B2B;" d="M129.247,291.54c0,0,26.257,0.533,30.246-3.904c0,0-8.598,30.807-2.107,45.922l-29.204-3.084
				C128.182,330.473,131.597,306.614,129.247,291.54z"/>
			<path style="fill:#FFFFFF;" d="M132.531,294.44c0,0,26.257,0.533,30.246-3.904c0,0-8.598,30.807-2.107,45.922l-29.204-3.084
				C131.466,333.373,134.881,309.514,132.531,294.44z"/>
		</g>
		<g>
			<path style="fill:#E19974;" d="M168.243,456.857H125.55c-1.426,0-2.581-1.156-2.581-2.581v-30.381
				c0-1.426,1.156-2.581,2.581-2.581h42.693c1.426,0,2.581,1.156,2.581,2.581v30.381
				C170.824,455.701,169.668,456.857,168.243,456.857z"/>
			<g>
				<path style="fill:#D6694B;" d="M153.253,439.666H140.54c-0.552,0-1-0.448-1-1v-3.421c0-0.552,0.448-1,1-1h12.713
					c0.552,0,1,0.448,1,1v3.421C154.253,439.218,153.805,439.666,153.253,439.666z"/>
			</g>
			<g>
				<g>
					<path style="fill:#D6694B;" d="M167.784,452.346c0.815,0.614,0.644,1.714,0.047,2.3c-0.584,0.599-1.686,0.773-2.3-0.047
						c0.291-0.421,0.441-0.679,0.561-0.898c0.12-0.209,0.207-0.354,0.325-0.469C166.659,452.986,166.973,452.914,167.784,452.346z"
						/>
				</g>
				<g>
					<path style="fill:#D6694B;" d="M165.531,423.571c0.614-0.815,1.714-0.644,2.3-0.047c0.599,0.584,0.773,1.686-0.047,2.3
						c-0.421-0.291-0.679-0.441-0.898-0.561c-0.209-0.12-0.354-0.207-0.469-0.325C166.171,424.696,166.099,424.382,165.531,423.571z
						"/>
				</g>
				<g>
					<path style="fill:#D6694B;" d="M126.008,425.825c-0.815-0.614-0.644-1.714-0.047-2.3c0.584-0.599,1.686-0.773,2.3,0.047
						c-0.291,0.421-0.441,0.679-0.561,0.898c-0.12,0.209-0.206,0.354-0.325,0.469C127.133,425.184,126.819,425.257,126.008,425.825z
						"/>
				</g>
				<g>
					<path style="fill:#D6694B;" d="M128.262,454.599c-0.614,0.815-1.714,0.644-2.3,0.047c-0.599-0.584-0.773-1.686,0.047-2.3
						c0.421,0.291,0.679,0.441,0.898,0.561c0.209,0.12,0.354,0.207,0.469,0.325C127.621,453.474,127.694,453.788,128.262,454.599z"
						/>
				</g>
			</g>
		</g>
		<g>
			<path style="fill:#E19974;" d="M168.243,338.612H125.55c-1.426,0-2.581-1.156-2.581-2.581V305.65
				c0-1.426,1.156-2.581,2.581-2.581h42.693c1.426,0,2.581,1.156,2.581,2.581v30.381
				C170.824,337.456,169.668,338.612,168.243,338.612z"/>
			<g>
				<path style="fill:#D6694B;" d="M153.253,321.421H140.54c-0.552,0-1-0.448-1-1v-3.421c0-0.552,0.448-1,1-1h12.713
					c0.552,0,1,0.448,1,1v3.421C154.253,320.974,153.805,321.421,153.253,321.421z"/>
			</g>
			<g>
				<g>
					<path style="fill:#D6694B;" d="M167.784,334.101c0.815,0.614,0.644,1.714,0.047,2.3c-0.584,0.599-1.686,0.773-2.3-0.047
						c0.291-0.421,0.441-0.679,0.561-0.898c0.12-0.209,0.207-0.354,0.325-0.469C166.659,334.741,166.973,334.669,167.784,334.101z"
						/>
				</g>
				<g>
					<path style="fill:#D6694B;" d="M165.531,305.327c0.614-0.815,1.714-0.644,2.3-0.047c0.599,0.584,0.773,1.686-0.047,2.3
						c-0.421-0.291-0.679-0.441-0.898-0.561c-0.209-0.12-0.354-0.207-0.469-0.325C166.171,306.451,166.099,306.138,165.531,305.327z
						"/>
				</g>
				<g>
					<path style="fill:#D6694B;" d="M126.008,307.58c-0.815-0.614-0.644-1.714-0.047-2.3c0.584-0.599,1.686-0.773,2.3,0.047
						c-0.291,0.421-0.441,0.679-0.561,0.898c-0.12,0.209-0.206,0.354-0.325,0.469C127.133,306.94,126.819,307.012,126.008,307.58z"
						/>
				</g>
				<g>
					<path style="fill:#D6694B;" d="M128.262,336.354c-0.614,0.815-1.714,0.644-2.3,0.047c-0.599-0.584-0.773-1.686,0.047-2.3
						c0.421,0.291,0.679,0.441,0.898,0.561c0.209,0.12,0.354,0.207,0.469,0.325C127.621,335.23,127.694,335.543,128.262,336.354z"/>
				</g>
			</g>
		</g>
	</g>
	<line style="fill:none;stroke:#935B50;stroke-width:2;stroke-miterlimit:10;" x1="100" y1="461.884" x2="600" y2="461.884"/>
</g>
</svg>
