<svg xmlns="http://www.w3.org/2000/svg" viewBox="0 0 489.86 347.76"><g data-name="Layer 2"><g data-name="Layer 1"><rect width="64.81" height="45.64" x="58.53" y="35.51" fill="none" stroke="#008ef8" stroke-linecap="round" stroke-linejoin="round" transform="rotate(164.38 90.931 58.329)"/><circle cx="54.38" cy="80.06" r="28.98" fill="#c1e3f7"/><line x1=".5" x2="489.36" y1="232.25" y2="232.25" fill="none" stroke="#545454" stroke-linecap="round" stroke-linejoin="round"/><polygon fill="#ffcd52" points="474.3 302.59 349.68 302.59 349.68 280.17 322.74 280.32 322.86 255.26 347.36 255.23 347.36 230.35 371.92 230.35 372.54 206.5 396.49 206.44 396.27 182.82 430.48 182.71 430.71 160.7 474.3 160.7 474.3 302.59"/><rect width="97.06" height="98.1" x="329.82" y="26.9" fill="#c1e3f7" rx="13" transform="rotate(45 378.34 75.953)"/><rect width="114.32" height="114.32" x="321.18" y="18.79" fill="none" stroke="#008ef8" stroke-linecap="round" stroke-linejoin="round" rx="13" transform="rotate(45 378.34 75.953)"/><path fill="#ff8721" d="M60,153.72,29.36,250.8H96.44L65.76,153.72A3,3,0,0,0,60,153.72Z"/><rect width="80.69" height="16.08" x="22.56" y="250.8" fill="#ffcd52"/><polygon fill="#ffcd52" points="50.51 183.87 75.29 183.87 72.21 174.11 53.6 174.11 50.51 183.87"/><polygon fill="#ffcd52" points="39.05 220.12 86.75 220.12 83.66 210.36 42.14 210.36 39.05 220.12"/><ellipse cx="156.29" cy="310.32" fill="#a5a5a5" rx="127.08" ry="37.44"/><path fill="#777" d="M29.55 313.05c3.7-2.81 7.47-5.52 11.25-8.22s7.61-5.33 11.4-8 7.67-5.24 11.54-7.81l5.81-3.83c2-1.25 3.9-2.53 5.88-3.75h0c-1.85 1.41-3.73 2.76-5.6 4.15l-5.65 4.07c-3.78 2.7-7.61 5.33-11.41 8s-7.66 5.24-11.53 7.81S33.49 310.58 29.55 313.05zM101.5 276.53c-5.36 4-10.78 7.87-16.21 11.74S74.38 296 68.93 299.8L52.44 311.13l-8.29 5.6c-2.78 1.84-5.55 3.7-8.35 5.52 2.67-2 5.38-3.95 8.07-5.92L52 310.5 68.36 299c5.5-3.78 11-7.6 16.49-11.34S95.91 280.17 101.5 276.53zM126.94 273.89c-6.46 4.83-13 9.58-19.52 14.31L87.74 302.3 67.93 316.22 58 323.1l-10 6.81 9.73-7.21 9.79-7.11 19.67-14.1L107 287.58C113.6 283 120.24 278.39 126.94 273.89zM148.3 273q-10.78 8-21.71 15.81l-21.85 15.59-22 15.41-11 7.64L60.6 335 71.42 327l10.88-7.87 21.86-15.59 22-15.41C133.51 283 140.87 278 148.3 273zM168.33 273.05c-7.67 5.67-15.4 11.25-23.14 16.81l-23.29 16.6L98.48 322.88 86.72 331 74.9 339.07l11.54-8.46L98 322.25l23.3-16.6 23.42-16.41C152.58 283.8 160.42 278.38 168.33 273.05zM187.18 274c-7.94 5.86-16 11.64-24 17.4l-24.11 17.18-24.25 17L102.69 334l-12.23 8.35 12-8.75 12-8.65 24.11-17.19 24.25-17C170.88 285.14 179 279.52 187.18 274zM207.34 276c-8 5.92-16.13 11.76-24.23 17.59L158.73 311l-24.52 17.18L121.9 336.7l-12.36 8.44 12.08-8.84 12.15-8.75 24.38-17.38L182.67 293C190.86 287.3 199.07 281.62 207.34 276zM131.1 347h0c7.88-5.82 15.83-11.55 23.78-17.26l23.94-17.05 24.07-16.85L215 287.5l12.15-8.27-11.86 8.67-11.92 8.59-23.94 17-24.08 16.85c-8 5.59-16.1 11.16-24.22 16.64h0zM247.52 284.25c-7.38 5.46-14.83 10.83-22.28 16.19l-22.43 16-22.56 15.78L168.92 340l-11.39 7.74h0l11.11-8.14 11.16-8.06 22.44-16 22.56-15.78C232.35 294.58 239.9 289.37 247.52 284.25zM264.06 290.47c-6.53 4.86-13.13 9.64-19.73 14.4l-19.88 14.19-20 14L194.37 340l-10.11 6.85 9.83-7.25 9.9-7.16 19.88-14.19 20-14C250.58 299.62 257.29 295 264.06 290.47zM277.19 298.76c-5.17 3.91-10.4 7.74-15.64 11.55s-10.52 7.55-15.78 11.33l-15.92 11.15-8 5.51c-2.69 1.8-5.36 3.64-8.07 5.42h0c2.58-2 5.19-3.88 7.78-5.82l7.85-5.74 15.79-11.33c5.31-3.71 10.59-7.47 15.92-11.15S271.78 302.34 277.19 298.76zM282.89 311c-2.83 2.27-5.72 4.45-8.62 6.62s-5.84 4.29-8.78 6.41-5.91 4.19-8.91 6.22l-4.5 3c-1.52 1-3 2-4.56 3 1.41-1.15 2.85-2.24 4.28-3.36l4.34-3.27c2.89-2.18 5.83-4.29 8.77-6.4s5.91-4.19 8.91-6.22S279.82 312.89 282.89 311z"/><path fill="#f46534" d="M29.89,142.88a79.59,79.59,0,0,1,1.2,7.89c.3,2.64.49,5.28.65,7.92S32,164,32,166.63a78.83,78.83,0,0,1-.35,8,79,79,0,0,1-1.21-7.88c-.3-2.64-.48-5.28-.64-7.92s-.23-5.29-.21-7.94S29.62,145.55,29.89,142.88Z"/><path fill="#f46534" d="M46.6 157.89a79 79 0 01-7.88 1.2c-2.64.3-5.28.49-7.92.65s-5.29.23-7.94.21a79 79 0 01-8-.35 79.63 79.63 0 017.89-1.21c2.64-.3 5.28-.48 7.92-.64s5.29-.23 7.94-.21A78.83 78.83 0 0146.6 157.89zM10.86 176.14a37.57 37.57 0 011.07 5.29c.24 1.78.41 3.55.51 5.33s.11 3.56.06 5.35a36.35 36.35 0 01-.49 5.38A36.16 36.16 0 0111 192.2c-.24-1.78-.42-3.55-.51-5.33s-.12-3.56-.07-5.35A39.26 39.26 0 0110.86 176.14z"/><path fill="#f46534" d="M22.12 186.24a36.56 36.56 0 01-5.3 1.06c-1.77.25-3.55.42-5.33.51s-3.56.12-5.35.07a36.35 36.35 0 01-5.38-.49 37.7 37.7 0 015.3-1.07c1.77-.24 3.54-.41 5.32-.5s3.57-.12 5.36-.07A36.6 36.6 0 0122.12 186.24zM359.32 170.19a78.7 78.7 0 011.2 7.89c.31 2.63.49 5.27.65 7.91s.23 5.29.21 7.95a79 79 0 01-.35 8 78.74 78.74 0 01-1.21-7.89c-.3-2.63-.48-5.28-.64-7.92s-.23-5.29-.21-7.94S359.05 172.85 359.32 170.19z"/><path fill="#f46534" d="M376 185.19a79 79 0 01-7.88 1.21c-2.64.3-5.28.48-7.92.65s-5.29.22-7.94.2a76.32 76.32 0 01-8-.35 76.75 76.75 0 017.89-1.2c2.64-.3 5.28-.49 7.92-.65s5.29-.22 7.94-.2A78.81 78.81 0 01376 185.19zM340.29 203.44a38 38 0 011.07 5.3c.24 1.77.41 3.55.51 5.33s.11 3.56.07 5.35a37.91 37.91 0 01-.5 5.38 36.56 36.56 0 01-1.06-5.3c-.24-1.77-.42-3.55-.51-5.33s-.12-3.56-.07-5.35A39.26 39.26 0 01340.29 203.44z"/><path fill="#f46534" d="M351.55 213.54a36.6 36.6 0 01-5.3 1.07c-1.77.24-3.55.41-5.33.51s-3.56.12-5.35.07a36.37 36.37 0 01-5.38-.5 36.56 36.56 0 015.3-1.06c1.77-.24 3.54-.42 5.32-.51s3.57-.11 5.36-.06A38 38 0 01351.55 213.54zM169.77 32a47.47 47.47 0 01-6.1 1.06c-2 .24-4.09.41-6.13.5s-4.1.11-6.16.06a47.63 47.63 0 01-6.17-.49 47.51 47.51 0 016.1-1.07c2-.23 4.09-.41 6.13-.5s4.1-.11 6.16-.05A47.63 47.63 0 01169.77 32z"/><path fill="#f46534" d="M158.05 44.82A51.73 51.73 0 01157 38.71q-.36-3.06-.5-6.13c-.1-2-.11-4.1-.06-6.15a47.81 47.81 0 01.5-6.18A47.62 47.62 0 01158 26.36q.36 3.06.5 6.13c.09 2 .11 4.1.06 6.15A49.8 49.8 0 01158.05 44.82zM178.61 42.07a36.27 36.27 0 011.09 5.29c.25 1.77.44 3.54.54 5.32s.14 3.57.1 5.35a36.54 36.54 0 01-.46 5.39 38 38 0 01-1.1-5.29c-.25-1.77-.43-3.55-.53-5.33s-.14-3.56-.1-5.35A36.29 36.29 0 01178.61 42.07z"/><path fill="#f46534" d="M189.92,52.11a37.64,37.64,0,0,1-5.29,1.09c-1.77.25-3.55.44-5.33.54s-3.56.14-5.35.1a36.41,36.41,0,0,1-5.38-.46,37.67,37.67,0,0,1,5.29-1.1c1.77-.25,3.55-.43,5.32-.53s3.57-.14,5.36-.1A36.41,36.41,0,0,1,189.92,52.11Z"/><path fill="#f4d8be" d="M24.26 25.66l10.26 36.7a29.71 29.71 0 01-2.89-2.63L23.15 29.4A28 28 0 0124.26 25.66zM22.31 36.09l5.15 18.43A32.38 32.38 0 0122.31 36.09zM27 19.89l12.85 46c-.88-.47-1.75-1-2.57-1.52L25.6 22.47A22.38 22.38 0 0127 19.89zM30.32 15.4L45 68a20.28 20.28 0 01-2.4-.86L28.72 17.38A20.94 20.94 0 0130.32 15.4zM33.88 11.89l16 57.26a20.92 20.92 0 01-2.28-.46L32.17 13.44c.06-.08.15-.15.23-.24C32.88 12.75 33.38 12.31 33.88 11.89zM37.57 9.2L54.44 69.54c-.74 0-1.46-.05-2.19-.12l-16.5-59A18.05 18.05 0 0137.57 9.2zM41.38 7.12l17.39 62.2c-.71.09-1.4.15-2.11.18L39.49 8.08A21 21 0 0141.38 7.12zM45.48 5.56l17.61 63a18.41 18.41 0 01-2 .44L43.52 6.22C44.16 6 44.83 5.75 45.48 5.56zM49.77 4.58l17.5 62.58c-.64.26-1.28.5-2 .71L47.73 5A16.69 16.69 0 0149.77 4.58zM54.26 4.16l17.06 61c-.61.37-1.25.7-1.87 1L52.14 4.26C52.84 4.22 53.55 4.17 54.26 4.16zM58.87 4.38L75.14 62.59a22 22 0 01-1.78 1.31L56.66 4.2A20.57 20.57 0 0158.87 4.38zM63.7 5.34L78.78 59.27c-.4.43-.8.84-1.21 1.24a6.42 6.42 0 01-.48.43L61.39 4.78A22.14 22.14 0 0163.7 5.34zM68.64 7.14l13.43 48a23.11 23.11 0 01-1.56 2.12L66.2 6.12A20.64 20.64 0 0168.64 7.14zM73.87 10.16L85 49.89a23.18 23.18 0 01-1.38 2.78L71.24 8.46A26.19 26.19 0 0173.87 10.16zM80 15.71l7.33 26.22a28 28 0 01-1 4.27l-9.4-33.62c.57.53 1.16 1.09 1.71 1.67S79.53 15.23 80 15.71zM87.59 34.59L84 21.77A32.42 32.42 0 0187.59 34.59z"/><rect width="45.4" height="21" x="351.55" y="281.59" fill="#ff8721"/><rect width="45.4" height="21" x="400.86" y="281.59" fill="#ff8721"/><path fill="#ff8721" d="M478,302.6H449.51v-21H478v4a12.38,12.38,0,0,1-1.06,5h0a12.37,12.37,0,0,0,.68,11.33Z"/><rect width="45.4" height="21" x="324.85" y="257.15" fill="#ff8721"/><rect width="45.4" height="21" x="373.69" y="257.15" fill="#ff8721"/><rect width="45.4" height="21" x="422.81" y="256.66" fill="#ff8721"/><rect width="45.4" height="21" x="349.68" y="232.46" fill="#ff8721"/><rect width="45.4" height="21" x="374.25" y="208.21" fill="#ff8721"/><rect width="45.4" height="21" x="398.07" y="184.45" fill="#ff8721"/><path fill="#ff8721" d="M478 205.46h-31.7v-21H478V189a11.72 11.72 0 01-.87 4.42l-.37.93A11.72 11.72 0 00478 205.46zM477.89 181.7h-45.4v-21h45.4L476 165.18a9.07 9.07 0 00.64 8.14h0a8.2 8.2 0 011.21 4.29z"/><rect width="45.4" height="21" x="422.25" y="208.21" fill="#ff8721"/><path fill="#ff8721" d="M478 229.21h-7.88v-21H478l1.15 3.53a9.61 9.61 0 01-.34 6.88h0a9.73 9.73 0 00-.81 3.87zM478 277.66h-7.29v-21H478l-.45 1.6a20.52 20.52 0 00-.16 10.58h0a20.89 20.89 0 01.61 5z"/><rect width="45.4" height="21" x="398.81" y="231.97" fill="#ff8721"/><path fill="#ff8721" d="M478,253H447.51V232H478v4.62a14,14,0,0,0,.84,4.79h0a14,14,0,0,1-.34,10.45Z"/><path fill="#898989" d="M202.45,114l-59.07,39.91-25.67-2.31.15-36.74C137.74,84.62,182,84.18,202.45,114Z"/><rect width="20.65" height="8.74" x="285.02" y="107.59" fill="#0850ec" rx="2"/><polygon fill="#008ef8" points="88.01 111.96 133.66 175.14 209.19 175.14 216.95 111.96 88.01 111.96"/><polyline fill="none" stroke="#0850ec" stroke-linecap="round" stroke-linejoin="round" stroke-width="2" points="88.01 111.96 133.66 175.14 209.19 175.14 267.48 111.96 299.95 111.96"/><path fill="none" stroke="#0850ec" stroke-linecap="round" stroke-linejoin="round" stroke-width="2" d="M133.66,175.14,184,226.59a15.11,15.11,0,0,0,10.92,4.66h0A15.13,15.13,0,0,0,210,215.83l-.81-40.69"/><circle cx="137.37" cy="203.58" r="28.44" fill="#545454"/><circle cx="137.37" cy="203.58" r="23.32" fill="#ffcd52"/><circle cx="137.37" cy="203.58" r="10.47" fill="#545454"/><line x1="81.36" x2="224.42" y1="111.96" y2="111.96" fill="none" stroke="#0850ec" stroke-linecap="round" stroke-linejoin="round" stroke-width="2"/><rect width="6.72" height="136.8" x="286.84" y="86.6" fill="#898989" transform="rotate(-4.92 290.085 154.945)"/><path fill="none" stroke="#489ee0" stroke-linecap="round" stroke-linejoin="round" d="M283.55,75.62h0A8.46,8.46,0,0,1,292,84.08V86.9a0,0,0,0,1,0,0H275.09a0,0,0,0,1,0,0V84.08A8.46,8.46,0,0,1,283.55,75.62Z" transform="rotate(-4.92 283.46 81.204)"/><path fill="#008ef8" d="M273.91,223h49.44a0,0,0,0,1,0,0v18.48a24.72,24.72,0,0,1-24.72,24.72h0a24.72,24.72,0,0,1-24.72-24.72V223A0,0,0,0,1,273.91,223Z" transform="rotate(-4.92 298.597 244.509)"/><path fill="#0234c1" d="M323,239.38,321.41,221l-4,.34L319,239.38a24.72,24.72,0,0,1-22.51,26.75h-.12a24.64,24.64,0,0,0,4.12,0h0A24.72,24.72,0,0,0,323,239.38Z"/><polygon fill="#545454" points="287.38 161.43 293.31 151.98 292.35 140.86 286.42 150.31 287.38 161.43"/><path fill="#008ef8" d="M200.76,228.92H250.2a0,0,0,0,1,0,0V247.4a24.72,24.72,0,0,1-24.72,24.72h0a24.72,24.72,0,0,1-24.72-24.72V228.92A0,0,0,0,1,200.76,228.92Z" transform="rotate(32.12 225.472 250.498)"/><path fill="#0234c1" d="M254.85,243.46,245.08,259a24.72,24.72,0,0,1-33.15,8.35c.66.51,1.35,1,2.07,1.45h0a24.72,24.72,0,0,0,34.08-7.8l9.82-15.65Z"/><rect width="6.72" height="136.8" x="269.36" y="105.51" fill="#898989" transform="rotate(32.12 272.707 173.894)"/><path fill="none" stroke="#489ee0" stroke-linecap="round" stroke-linejoin="round" d="M311.83,105.41h0a8.46,8.46,0,0,1,8.46,8.46v2.82a0,0,0,0,1,0,0H303.37a0,0,0,0,1,0,0v-2.82a8.46,8.46,0,0,1,8.46-8.46Z" transform="rotate(32.12 311.805 111.03)"/></g></g></svg>